<?xml version="1.0" encoding="utf-8"?>
<!-- Generator: Adobe Illustrator 17.0.0, SVG Export Plug-In . SVG Version: 6.00 Build 0)  -->
<!DOCTYPE svg PUBLIC "-//W3C//DTD SVG 1.1//EN" "http://www.w3.org/Graphics/SVG/1.1/DTD/svg11.dtd">
<svg version="1.1" id="Layer_1" xmlns="http://www.w3.org/2000/svg" xmlns:xlink="http://www.w3.org/1999/xlink" x="0px" y="0px"
	 width="32px" height="27.688px" viewBox="0 0 32 27.688" enable-background="new 0 0 32 27.688" xml:space="preserve">
<g id="camera">
	<path fill="#FFFFFF" d="M16,7.689c-4.419,0-8,3.581-8,8c0,4.418,3.581,8,8,8c4.418,0,8-3.582,8-8S20.418,7.689,16,7.689z
		 M20.555,19.594c-2.156,2.516-5.943,2.807-8.459,0.65c-2.517-2.156-2.807-5.944-0.65-8.459c2.155-2.517,5.943-2.807,8.459-0.65
		C22.42,13.29,22.711,17.079,20.555,19.594z"/>
	<path fill="#FFFFFF" d="M16,11.689c-2.209,0-3.999,1.791-4,3.999v0.002c0,0.275,0.224,0.5,0.5,0.5s0.5-0.225,0.5-0.5v-0.002
		c0.001-1.656,1.343-2.999,3-2.999c0.276,0,0.5-0.224,0.5-0.5S16.276,11.689,16,11.689z"/>
	<path fill="#FFFFFF" d="M29.492,6.73l-4.334-0.723l-1.373-3.434C23.326,1.428,22.232,0.688,21,0.688H11
		c-1.232,0-2.326,0.74-2.786,1.886L6.842,6.007L2.509,6.73C1.055,6.971,0,8.215,0,9.688v15c0,1.654,1.346,3,3,3h26
		c1.654,0,3-1.346,3-3v-15C32,8.215,30.945,6.971,29.492,6.73z M30,24.688c0,0.553-0.447,1-1,1H3c-0.553,0-1-0.447-1-1v-15
		c0-0.489,0.354-0.906,0.836-0.986L8.28,7.795l1.791-4.478c0.153-0.379,0.52-0.629,0.929-0.629h10c0.408,0,0.775,0.249,0.928,0.629
		l1.791,4.478l5.445,0.907C29.646,8.782,30,9.199,30,9.688V24.688z"/>
</g>
</svg>
