<?xml version="1.0" encoding="utf-8"?>
<!-- Generator: Adobe Illustrator 17.0.0, SVG Export Plug-In . SVG Version: 6.00 Build 0)  -->
<!DOCTYPE svg PUBLIC "-//W3C//DTD SVG 1.1//EN" "http://www.w3.org/Graphics/SVG/1.1/DTD/svg11.dtd">
<svg version="1.1" id="Layer_1" xmlns="http://www.w3.org/2000/svg" xmlns:xlink="http://www.w3.org/1999/xlink" x="0px" y="0px"
	 width="135px" height="142px" viewBox="0 0 135 142" enable-background="new 0 0 135 142" xml:space="preserve">
<path fill="#FFFFFF" d="M68.211,139.541c-28.514-0.09-53.077-17.979-61.821-45.026c-8.436-26.094,1.005-55.297,23.192-71.673
	c1.471-1.086,2.985-2.134,4.572-3.037c4.512-2.567,9.036-1.627,11.327,2.264c2.121,3.601,0.98,8.074-3.058,10.767
	c-7.768,5.18-14.05,11.621-18.24,20.059c-11.783,23.729-2.91,52.322,20.271,65.125c22.915,12.656,51.565,5.054,65.562-17.397
	c13.808-22.148,7.579-51.385-14.04-66.349c-2.123-1.47-5.009-3.311-5.426-5.401c-0.53-2.66,0.292-6.393,1.98-8.507
	c2.594-3.249,6.516-2.638,9.96-0.458c10.833,6.858,19.028,16.083,24.442,27.69C146.87,90.348,115.336,139.69,68.211,139.541z"/>
<path fill="#FFFFFF" d="M60.359,38.905c0-8.814-0.044-17.628,0.015-26.441c0.043-6.415,2.556-9.372,7.762-9.378
	c5.227-0.006,7.758,2.939,7.773,9.343c0.042,17.461,0.055,34.923-0.007,52.384c-0.024,6.73-2.701,9.83-7.997,9.67
	c-5.067-0.153-7.522-3.213-7.558-9.635c-0.049-8.647-0.012-17.295-0.012-25.942C60.343,38.905,60.351,38.905,60.359,38.905z"/>
</svg>
