<?xml version="1.0" encoding="utf-8"?>
<!-- Generator: Adobe Illustrator 17.0.0, SVG Export Plug-In . SVG Version: 6.00 Build 0)  -->
<!DOCTYPE svg PUBLIC "-//W3C//DTD SVG 1.1//EN" "http://www.w3.org/Graphics/SVG/1.1/DTD/svg11.dtd">
<svg version="1.1" id="Layer_1" xmlns="http://www.w3.org/2000/svg" xmlns:xlink="http://www.w3.org/1999/xlink" x="0px" y="0px"
	 width="22.542px" height="28.375px" viewBox="0 0 22.542 28.375" enable-background="new 0 0 22.542 28.375" xml:space="preserve">
<g id="_1">
	<path id="login_account_enter_door" fill="#FFFFFF" d="M21.021,3.173v22.405c0,0.476-0.386,0.862-0.862,0.862H2.925
		c-0.476,0-0.862-0.386-0.862-0.862v-1.723h1.723v0.862h15.511V4.034H3.786v2.585H2.063V3.173c0-0.476,0.386-0.862,0.862-0.862
		h17.235C20.635,2.311,21.021,2.697,21.021,3.173z M8.345,18.072l1.224,1.224l4.309-4.309c0.338-0.335,0.34-0.881,0.005-1.218
		c-0.002-0.002-0.003-0.003-0.005-0.005L9.569,9.455l-1.224,1.224l2.844,2.835H2.063v1.723h9.126L8.345,18.072z"/>
</g>
</svg>
