<?xml version="1.0" encoding="utf-8"?>
<!-- Generator: Adobe Illustrator 17.0.0, SVG Export Plug-In . SVG Version: 6.00 Build 0)  -->
<!DOCTYPE svg PUBLIC "-//W3C//DTD SVG 1.1//EN" "http://www.w3.org/Graphics/SVG/1.1/DTD/svg11.dtd">
<svg version="1.1" id="Layer_1" xmlns="http://www.w3.org/2000/svg" xmlns:xlink="http://www.w3.org/1999/xlink" x="0px" y="0px"
	 width="704.965px" height="700.465px" viewBox="0 0 704.965 700.465" enable-background="new 0 0 704.965 700.465"
	 xml:space="preserve">
<path fill="#FFFFFF" d="M338.735,8.09c10.237,0,20.473,0,30.71,0c1.25,0.197,2.493,0.451,3.75,0.584
	c11.901,1.259,23.902,1.906,35.691,3.84c66.787,10.954,125.42,39.169,175.421,84.754c90.526,82.529,129.879,204.922,104.067,324.665
	c-17.448,80.94-59.338,147.062-124.451,198.05c-56.154,43.972-120.258,67.578-191.517,71.549
	c-47.062,2.622-92.81-4.1-136.903-20.652c-73.599-27.629-131.261-75.039-172.775-141.782
	c-27.117-43.597-43.172-91.132-48.609-142.213c-0.76-7.137-1.357-14.292-2.029-21.438c0-10.237,0-20.473,0-30.71
	c0.202-1.354,0.522-2.702,0.589-4.063c0.955-19.319,3.501-38.446,8.059-57.221C43.619,179.214,96.52,106.674,179.281,56.236
	c42.482-25.891,88.837-40.916,138.33-46.15C324.644,9.342,331.693,8.751,338.735,8.09z M539.341,595.771
	c0.557-0.376,1.051-0.669,1.499-1.02c18.483-14.462,35.401-30.578,50.045-48.915c60.705-76.018,83.636-162.43,67.809-258.179
	c-12.713-76.911-51.203-139.354-114.07-185.624c-70.935-52.208-151.118-69.11-237.696-58.027
	c-34.948,4.474-68.239,14.936-99.679,30.957C150.641,103.808,106.844,145.88,77.77,202.518
	c-32.94,64.17-40.448,132.127-26.861,202.421c12.838,66.42,44.236,123.079,93.065,169.983c4.503,4.325,9.253,8.393,13.977,12.66
	c33.303-45.218,78.168-71.725,132.412-84.769c-1.755-4.71-3-9.192-5.03-13.284c-5.53-11.147-14.064-19.84-23.53-27.711
	c-1.677-1.395-3.298-2.958-4.582-4.71c-18.185-24.803-27.361-53.034-31.57-83.161c-2.898-20.743-2.44-41.522-0.729-62.304
	c2.358-28.638,13.974-52.801,35.705-71.752c21.977-19.166,48.125-29.47,76.413-34.93c3.476-0.898,7.134-1.241,10.669-1.183
	c25.047,3.54,48.56,11.543,69.721,25.637c27.647,18.414,44.496,43.848,48.388,77.1c2.848,24.334,3.027,48.733-0.895,73.016
	c-3.906,24.184-11.197,47.201-24.134,68.202c-3.845,6.243-7.972,12.153-13.858,16.833c-7.321,5.821-13.348,12.947-18.184,20.994
	c-3.24,5.392-5.807,11.059-6.44,17.536C459.546,517.035,506.491,545.94,539.341,595.771z"/>
</svg>
