<?xml version="1.0" encoding="utf-8"?>
<!-- Generator: Adobe Illustrator 17.0.0, SVG Export Plug-In . SVG Version: 6.00 Build 0)  -->
<!DOCTYPE svg PUBLIC "-//W3C//DTD SVG 1.1//EN" "http://www.w3.org/Graphics/SVG/1.1/DTD/svg11.dtd">
<svg version="1.1" id="Layer_1" xmlns="http://www.w3.org/2000/svg" xmlns:xlink="http://www.w3.org/1999/xlink" x="0px" y="0px"
	 width="231.073px" height="230.508px" viewBox="0 0 231.073 230.508" enable-background="new 0 0 231.073 230.508"
	 xml:space="preserve">
<path fill="#FFFFFF" d="M4.531,204.977c0-53.667,0-107.333,0-161c5.874-22.419,22.741-23.685,42.441-21.213
	c0,5.283-0.197,10.615,0.041,15.927c0.48,10.7,7.674,17.565,17.866,17.338c9.565-0.212,16.428-7.748,16.525-18.203
	c0.047-5.118,0.008-10.237,0.008-15.578c22.885,0,45.267,0,68.059,0c0,5.723-0.072,11.184,0.016,16.644
	c0.161,10.065,7.14,17.114,16.87,17.151c9.904,0.037,17.064-7.201,17.164-17.418c0.053-5.434,0.009-10.869,0.009-16.647
	c5.582,0,10.551-0.023,15.519,0.004c15.929,0.086,26.811,10.561,26.851,26.496c0.128,50.64,0.122,101.28,0.003,151.92
	c-0.036,15.293-10.427,25.888-25.693,25.929c-56.636,0.155-113.273,0.129-169.91,0.003c-11.848-0.026-20.736-6.639-24.371-17.181
	C5.453,207.763,4.997,206.368,4.531,204.977z M21.53,81.961c0,1.954,0,3.74,0,5.526c0,36.82-0.002,73.639,0.002,110.459
	c0.001,9.085,2.74,11.78,12.016,11.781c54.48,0.006,108.959,0.005,163.439,0.001c9.45-0.001,12.292-2.801,12.293-12.125
	c0.007-36.653,0.003-73.306,0.003-109.959c0-1.789,0-3.577,0-5.682C146.503,81.961,84.292,81.961,21.53,81.961z"/>
<path fill="#FFFFFF" d="M66.531,4.977c4.501,2.45,6.428,6.04,6.147,11.334c-0.386,7.279-0.038,14.594-0.118,21.893
	c-0.061,5.645-3.243,9.066-8.272,9.14c-4.982,0.073-8.451-3.29-8.588-8.929c-0.197-8.124-0.049-16.256-0.055-24.385
	c-0.003-4.299,2.71-6.824,5.885-9.052C63.198,4.977,64.864,4.977,66.531,4.977z"/>
<path fill="#FFFFFF" d="M168.531,4.977c4.86,2.169,6.548,5.882,6.295,11.166c-0.35,7.29-0.041,14.609-0.105,21.915
	c-0.05,5.749-3.117,9.202-8.072,9.294c-5.24,0.097-8.393-3.309-8.465-9.408c-0.087-7.472,0.182-14.953-0.094-22.415
	c-0.19-5.148,1.751-8.585,6.441-10.552C165.864,4.977,167.198,4.977,168.531,4.977z"/>
<g>
	<path fill="#FFFFFF" d="M72.408,133.714c0,5.717-4.212,11.659-9.93,17.527L51.796,162.6h22.191v10.606H34.57v-8.651l18.806-19.935
		c2.934-3.084,5.04-6.62,5.04-9.027c0-3.009-2.181-4.814-5.942-4.814c-4.288,0-9.554,2.558-14.368,6.695l-5.041-9.629
		c6.62-4.965,13.842-7.898,21.364-7.898C64.886,119.947,72.408,125.363,72.408,133.714z"/>
	<path fill="#FFFFFF" d="M103.552,151.467v-11.284h12.412v11.284h7.146v10.155h-7.146v11.585h-12.412v-11.585H78.577v-8.952
		l16.625-32.121h12.863l-15.647,30.918H103.552z"/>
	<path fill="#FFFFFF" d="M141.617,144.32h-6.469l0.15-7.222l-6.169,3.687l-3.234-5.567l6.243-3.535l-6.243-3.386l3.234-5.792
		l6.094,3.762l-0.075-7.147h6.469l-0.075,7.147l6.169-3.611l3.234,5.642l-6.395,3.386l6.395,3.535l-3.234,5.718l-6.244-3.837
		L141.617,144.32z"/>
	<path fill="#FFFFFF" d="M176.673,173.207H162.53l18.807-42.051h-14.519v7.372h-11.735v-17.979h40.998v9.103L176.673,173.207z"/>
</g>
</svg>
