<?xml version="1.0" encoding="utf-8"?>
<!-- Generator: Adobe Illustrator 17.0.0, SVG Export Plug-In . SVG Version: 6.00 Build 0)  -->
<!DOCTYPE svg PUBLIC "-//W3C//DTD SVG 1.1//EN" "http://www.w3.org/Graphics/SVG/1.1/DTD/svg11.dtd">
<svg version="1.1" id="Layer_1" xmlns="http://www.w3.org/2000/svg" xmlns:xlink="http://www.w3.org/1999/xlink" x="0px" y="0px"
	 width="19.063px" height="18.25px" viewBox="2.469 2.844 19.063 18.25" enable-background="new 2.469 2.844 19.063 18.25"
	 xml:space="preserve">
<g>
	<g>
		<path fill="#FFFFFF" d="M16.855,20.966c-0.224,0-0.443-0.05-0.646-0.146c-0.035-0.014-0.069-0.031-0.104-0.051l-4.107-2.343
			L7.891,20.77c-0.035,0.02-0.07,0.037-0.106,0.053C7.297,21.051,6.7,20.997,6.264,20.68c-0.469-0.34-0.701-0.933-0.586-1.509
			l0.957-4.642c-0.374-0.34-0.962-0.875-1.602-1.457l-1.895-1.725c-0.027-0.025-0.055-0.053-0.078-0.082
			c-0.375-0.396-0.509-0.97-0.34-1.492c0.173-0.524,0.62-0.912,1.16-1.009C3.914,8.756,3.947,8.75,3.982,8.746l4.701-0.521
			l1.946-4.31c0.017-0.038,0.036-0.075,0.06-0.11c0.262-0.473,0.764-0.771,1.309-0.771c0.543,0,1.044,0.298,1.309,0.77
			c0.021,0.036,0.041,0.073,0.06,0.112l1.948,4.312l4.701,0.521c0.034,0.003,0.068,0.009,0.104,0.017
			c0.539,0.1,0.986,0.486,1.158,1.012c0.17,0.521,0.035,1.098-0.34,1.494c-0.024,0.026-0.051,0.054-0.078,0.078l-3.498,3.184
			l0.957,4.632c0.113,0.587-0.118,1.178-0.59,1.519C17.477,20.867,17.173,20.966,16.855,20.966z M7.85,14.996
			c-0.049,0.229-0.587,2.83-1.065,5.143l4.59-2.617c0.387-0.22,0.862-0.22,1.247,0l4.59,2.614l-1.07-5.17
			c-0.089-0.436,0.057-0.888,0.388-1.187l3.905-3.555l-5.251-0.581c-0.442-0.049-0.824-0.328-1.009-0.736l-2.177-4.814L9.824,8.907
			C9.64,9.313,9.257,9.591,8.815,9.643l-5.251,0.581l3.905,3.555C7.812,14.089,7.953,14.556,7.85,14.996z"/>
	</g>
</g>
</svg>
