<svg xmlns="http://www.w3.org/2000/svg" width="88.226" height="21.823" viewBox="0 0 88.226 21.823"><path d="M58.7,18.055c-2.2-2.846-3.055-5.924-1.976-7.007a29.58,29.58,0,0,1-9.3-5.693l.665-.788A28.734,28.734,0,0,0,56.849,9.84c-.2-1.449.684-3.818,2.395-6.046C61.488.867,64.29-.7,65.5.3s.368,4.178-1.877,7.107a11.643,11.643,0,0,1-3.873,3.4,29.538,29.538,0,0,0,7.978,1.172c-.67-1.285-.23-4,1.218-6.727,1.738-3.277,4.246-5.307,5.6-4.537s1.045,4.057-.693,7.333a12.652,12.652,0,0,1-2.83,3.687,18.563,18.563,0,0,0,6.244-1.968c-.085-1.458,1.4-3.737,3.79-5.6,2.88-2.249,5.97-3.038,6.9-1.757S87.31,6.549,84.428,8.8c-2.747,2.146-5.664,2.94-6.737,1.9a20.184,20.184,0,0,1-5.436,1.858A13.547,13.547,0,0,1,75.1,13.783c3.157,1.81,5.109,4.414,4.361,5.815s-3.914,1.075-7.071-.736-5.109-4.414-4.361-5.817c.007-.014.023-.023.032-.036-.258.007-.511.025-.769.025a29.108,29.108,0,0,1-6.152-.669,14.437,14.437,0,0,1,1.929,2.054c2.259,2.915,3.113,6.094,1.907,7.1a1.411,1.411,0,0,1-.932.305C62.636,21.823,60.5,20.369,58.7,18.055ZM23.249,21.517c-1.2-1-.35-4.183,1.909-7.1a14.563,14.563,0,0,1,1.927-2.054,29.086,29.086,0,0,1-6.15.669c-.26,0-.513-.018-.769-.025.007.014.023.023.032.036.748,1.4-1.2,4.006-4.361,5.817S9.515,21,8.767,19.6s1.2-4.006,4.361-5.815a13.5,13.5,0,0,1,2.846-1.227A20.229,20.229,0,0,1,10.536,10.7c-1.071,1.043-3.988.249-6.737-1.9C.918,6.549-.664,3.687.267,2.407s4.02-.492,6.9,1.757c2.388,1.865,3.877,4.144,3.792,5.6A18.546,18.546,0,0,0,17.2,11.735a12.617,12.617,0,0,1-2.83-3.687c-1.738-3.276-2.049-6.559-.693-7.333s3.861,1.26,5.6,4.537c1.446,2.73,1.888,5.442,1.216,6.727a29.524,29.524,0,0,0,7.978-1.172,11.661,11.661,0,0,1-3.87-3.4C22.358,4.479,21.518,1.3,22.727.3s4.011.566,6.258,3.492c1.711,2.229,2.6,4.6,2.392,6.046a28.679,28.679,0,0,0,8.754-5.273l.665.788a29.543,29.543,0,0,1-9.3,5.693c1.08,1.083.228,4.161-1.978,7.007-1.792,2.314-3.93,3.768-5.339,3.768A1.414,1.414,0,0,1,23.249,21.517Z" fill="#f4494e"/></svg>