<svg xmlns="http://www.w3.org/2000/svg" width="382.047" height="29.754" viewBox="0 0 382.047 29.754"><g transform="translate(-841.048 -4673.577)"><path d="M149.762,22.579c2.827-5.032-7.308-8.509-11.291,7.175-3.983-15.684-14.117-12.207-11.291-7.175a2.242,2.242,0,1,1,1.8,3.576,5.793,5.793,0,0,1-6.375-5.965c-.078-4.164,5.453-7.738,10.161-4.622A23.078,23.078,0,0,1,138.471,0a23.085,23.085,0,0,1,5.7,15.567c4.708-3.116,10.238.457,10.16,4.622a5.79,5.79,0,0,1-6.374,5.965,2.241,2.241,0,1,1,1.8-3.576" transform="translate(892.393 4673.577)" fill="#fff" fill-rule="evenodd"/><rect width="167.036" height="1.912" transform="translate(1056.059 4687.498)" fill="#fff"/><rect width="167.036" height="1.912" transform="translate(841.048 4687.498)" fill="#fff"/></g></svg>