<svg xmlns="http://www.w3.org/2000/svg" width="195.088" height="14.325" viewBox="0 0 195.088 14.325"><g transform="translate(-862.333 -452.443)"><path d="M902.105,338.127a.547.547,0,0,1-.354-.131c-2.113-1.8-8.122-6.463-10.528-6.463a.568.568,0,0,1,0-1.136c2.406,0,8.415-4.666,10.528-6.466a.547.547,0,0,1,.692-.012c3.306,2.605,8.841,6.477,10.545,6.477a.568.568,0,0,1,0,1.136c-1.626,0-7.332,3.973-10.547,6.479A.552.552,0,0,1,902.105,338.127Zm-8.7-7.162c3.168,1.359,7.389,4.771,8.712,5.872a60.445,60.445,0,0,1,8.935-5.863,57.8,57.8,0,0,1-8.936-5.88C900.793,326.2,896.574,329.607,893.407,330.965Z" transform="translate(59.483 128.64)" fill="#4cd790"/><rect width="1.109" height="8.508" transform="translate(961.036 455.346)" fill="#4cd790"/><rect width="1.109" height="4.082" transform="translate(963.909 457.564)" fill="#4cd790"/><rect width="1.109" height="4.082" transform="translate(957.608 457.564)" fill="#4cd790"/><path d="M931.117,334a3.406,3.406,0,1,1,3.328-3.4A3.371,3.371,0,0,1,931.117,334Zm0-5.673a2.27,2.27,0,1,0,2.219,2.269A2.247,2.247,0,0,0,931.117,328.327Z" transform="translate(63.54 129.01)" fill="#4cd790"/><path d="M871.823,334a3.406,3.406,0,1,1,3.328-3.4A3.371,3.371,0,0,1,871.823,334Zm0-5.673a2.27,2.27,0,1,0,2.218,2.269A2.247,2.247,0,0,0,871.823,328.327Z" transform="translate(57.061 129.01)" fill="#4cd790"/><rect width="19.046" height="1.131" transform="translate(931.651 459.04)" fill="#4cd790"/><rect width="20.067" height="1.131" transform="translate(971.818 459.151)" fill="#4cd790"/><path d="M933.289,330.26" transform="translate(64.142 129.346)" fill="#4cd790"/><rect width="59.99" height="1.131" transform="translate(997.432 459.151)" fill="#4cd790"/><rect width="63.772" height="1.131" transform="translate(862.333 459.04)" fill="#4cd790"/></g></svg>