<svg xmlns="http://www.w3.org/2000/svg" width="179.072" height="178.654" viewBox="0 0 179.072 178.654"><path d="M89.538.25q37.115,0,63.324,26.209t26.209,63.118q0,36.908-26.209,63.118T89.538,178.9q-37.115,0-63.324-26.209T0,89.577Q-.005,52.669,26.209,26.459T89.538.25Zm0,161.04q29.566,0,50.536-20.97t20.97-50.743q0-29.772-20.97-50.743T89.538,17.864q-29.566,0-50.536,20.97T18.031,89.577q0,29.772,20.97,50.743T89.538,161.29ZM93.942,44.7V91.671l40.26,23.9L127.494,126.9,80.525,98.379V44.7H93.947Z" transform="translate(0 -0.25)" opacity="0.032"/></svg>