<svg xmlns="http://www.w3.org/2000/svg" width="205.093" height="53.371" viewBox="0 0 205.093 53.371"><g transform="translate(0.573 0.506)"><path d="M269.429,419.1c-1.157,2.337-4.284,1.83-5.852.293-2.978-2.924-2.294-8.273.285-11.2,4.752-5.381,13.176-2.729,15.468,3.609a14.069,14.069,0,0,1-1.588,11.832c-6.467,10.7-20,11.171-31.179,9.546-8.388-1.218-14.169-4.937-19.16-11.668-8.056-10.863-23.536-17.633-36.522-11.467-5.629,2.673-10.972,8.215-12.49,14.378-1.691,6.866,2.941,13.547,9.508,15.547,5.259,1.6,13.344.29,14.166-6.3a7.43,7.43,0,0,0-1.565-5.513,5.621,5.621,0,0,0-3.159-2.05c-3.133-.646-5.95,4.058-2.528,4.989" transform="translate(-76.068 -403.521)" fill="none" stroke="#fff" stroke-linecap="round" stroke-linejoin="round" stroke-width="1"/><path d="M206.71,422.666a2.829,2.829,0,0,0-.64-2.779c-1.445-1.556-3.513-1.155-5,.112a5.865,5.865,0,0,0-1.932,6.019c1.048,3.8,5.287,3.6,8.382,2.725A7.5,7.5,0,0,0,212,425.631a10.4,10.4,0,0,0,1.166-5.731,29.085,29.085,0,0,0-.982-6.993" transform="translate(-64.905 -399.46)" fill="none" stroke="#fff" stroke-linecap="round" stroke-linejoin="round" stroke-width="1"/><path d="M207.226,441.967a2.267,2.267,0,0,0,2.119-1.187,2.159,2.159,0,0,0,.146-1.9,2.718,2.718,0,0,0-1.043-1.152c-2.223-1.47-5.313-.52-6.8,1.556a7.54,7.54,0,0,0-.767,6.775c1.272,3.463,5.121,4.824,8.558,5.071,3.147.226,7.091-.074,9.891-1.6,3.868-2.113,5.885-6.461,6.329-10.709.485-4.649-1.218-8.63-3.652-12.466-2.713-4.276-5.821-8.277-8.891-12.3" transform="translate(-64.113 -398.846)" fill="none" stroke="#fff" stroke-linecap="round" stroke-linejoin="round" stroke-width="1"/><path d="M223.692,407.531c-1.4,1.031-2.571-1.022-1.755-2.2a2.906,2.906,0,0,1,1.665-1.062,2.735,2.735,0,0,1,2.05.147c2.613,1.484.81,5.444-.675,7.044a11.177,11.177,0,0,1-3.481,2.478,24.289,24.289,0,0,1-11.6,1.709q-.983-.062-1.961-.176c-.8-.094-1.376-.172-2.173-.308" transform="translate(-61.257 -404.142)" fill="none" stroke="#fff" stroke-linecap="round" stroke-linejoin="round" stroke-width="1"/><path d="M199.736,414.7a1.636,1.636,0,0,0-2.044.146c-1.281,1.157-.149,3.072,1.229,3.487a3.76,3.76,0,0,0,4.695-4.2,8.841,8.841,0,0,0-4.011-5.781c-3.83-2.575-8.751-1-11.415,2.5a9.012,9.012,0,0,0-1.89,6.936,3.85,3.85,0,0,0,3.718,3.428,4.939,4.939,0,0,0,.888-.089,3.776,3.776,0,0,0,1.579-.651,2.3,2.3,0,0,0,.75-2.977,1.578,1.578,0,0,0-2.35-.307" transform="translate(-71.724 -402.571)" fill="none" stroke="#fff" stroke-linecap="round" stroke-linejoin="round" stroke-width="1"/><path d="M122.163,419.1c1.157,2.337,4.284,1.83,5.852.293,2.978-2.924,2.294-8.273-.285-11.2-4.752-5.381-13.176-2.729-15.468,3.609a14.07,14.07,0,0,0,1.588,11.832c6.467,10.7,20,11.171,31.179,9.546,8.388-1.218,14.169-4.937,19.16-11.668,8.056-10.863,23.536-17.633,36.522-11.467,5.629,2.673,10.972,8.215,12.49,14.378,1.691,6.866-2.941,13.547-9.508,15.547-5.259,1.6-13.343.29-14.166-6.3a7.43,7.43,0,0,1,1.565-5.513,5.621,5.621,0,0,1,3.159-2.05c3.133-.646,5.948,4.058,2.528,4.989" transform="translate(-111.577 -403.521)" fill="none" stroke="#fff" stroke-linecap="round" stroke-linejoin="round" stroke-width="1"/><path d="M154.332,422.666a2.829,2.829,0,0,1,.64-2.779c1.445-1.556,3.514-1.155,5,.112a5.865,5.865,0,0,1,1.932,6.019c-1.048,3.8-5.287,3.6-8.382,2.725a7.5,7.5,0,0,1-4.477-3.113,10.4,10.4,0,0,1-1.166-5.731,29.084,29.084,0,0,1,.982-6.993" transform="translate(-92.19 -399.46)" fill="none" stroke="#fff" stroke-linecap="round" stroke-linejoin="round" stroke-width="1"/><path d="M157.677,441.967a2.267,2.267,0,0,1-2.119-1.187,2.159,2.159,0,0,1-.146-1.9,2.718,2.718,0,0,1,1.043-1.152c2.223-1.47,5.313-.52,6.8,1.556a7.54,7.54,0,0,1,.767,6.775c-1.272,3.463-5.121,4.824-8.558,5.071-3.147.226-7.091-.074-9.891-1.6-3.868-2.113-5.885-6.461-6.329-10.709-.485-4.649,1.218-8.63,3.652-12.466,2.711-4.276,5.821-8.277,8.891-12.3" transform="translate(-96.842 -398.846)" fill="none" stroke="#fff" stroke-linecap="round" stroke-linejoin="round" stroke-width="1"/><path d="M139.778,407.531c1.4,1.031,2.571-1.022,1.755-2.2a2.906,2.906,0,0,0-1.665-1.062,2.735,2.735,0,0,0-2.05.147c-2.613,1.484-.81,5.444.675,7.044a11.176,11.176,0,0,0,3.481,2.478,24.289,24.289,0,0,0,11.6,1.709q.983-.062,1.961-.176c.8-.094,1.376-.172,2.173-.308" transform="translate(-98.266 -404.142)" fill="none" stroke="#fff" stroke-linecap="round" stroke-linejoin="round" stroke-width="1"/><path d="M162.433,414.7a1.636,1.636,0,0,1,2.044.146c1.281,1.157.149,3.072-1.229,3.487a3.76,3.76,0,0,1-4.695-4.2,8.841,8.841,0,0,1,4.011-5.781c3.83-2.575,8.751-1,11.415,2.5a9.012,9.012,0,0,1,1.89,6.936,3.85,3.85,0,0,1-3.718,3.428,4.94,4.94,0,0,1-.888-.089,3.776,3.776,0,0,1-1.579-.651,2.3,2.3,0,0,1-.75-2.977,1.578,1.578,0,0,1,2.35-.307" transform="translate(-86.499 -402.571)" fill="none" stroke="#fff" stroke-linecap="round" stroke-linejoin="round" stroke-width="1"/></g></svg>