<svg xmlns="http://www.w3.org/2000/svg" width="305" height="203.746" viewBox="0 0 305 203.746"><g transform="translate(83 -1500.234)"><path d="M5.755,3.251A3.081,3.081,0,0,1,2.877,6.5,3.081,3.081,0,0,1,0,3.251,3.081,3.081,0,0,1,2.877,0,3.081,3.081,0,0,1,5.755,3.251Z" transform="translate(-83 1500.234)" fill="#13164b" opacity="0.1"/><path d="M5.755,3.251A3.081,3.081,0,0,1,2.877,6.5,3.081,3.081,0,0,1,0,3.251,3.081,3.081,0,0,1,2.877,0,3.081,3.081,0,0,1,5.755,3.251Z" transform="translate(-58.063 1500.234)" fill="#13164b" opacity="0.1"/><path d="M5.755,3.251A3.081,3.081,0,0,1,2.877,6.5,3.081,3.081,0,0,1,0,3.251,3.081,3.081,0,0,1,2.877,0,3.081,3.081,0,0,1,5.755,3.251Z" transform="translate(-33.126 1500.234)" fill="#13164b" opacity="0.1"/><path d="M5.755,3.251A3.081,3.081,0,0,1,2.877,6.5,3.081,3.081,0,0,1,0,3.251,3.081,3.081,0,0,1,2.877,0,3.081,3.081,0,0,1,5.755,3.251Z" transform="translate(-8.189 1500.234)" fill="#13164b" opacity="0.1"/><path d="M5.755,3.251A3.081,3.081,0,0,1,2.877,6.5,3.081,3.081,0,0,1,0,3.251,3.081,3.081,0,0,1,2.877,0,3.081,3.081,0,0,1,5.755,3.251Z" transform="translate(16.748 1500.234)" fill="#13164b" opacity="0.1"/><path d="M5.755,3.251A3.081,3.081,0,0,1,2.877,6.5,3.081,3.081,0,0,1,0,3.251,3.081,3.081,0,0,1,2.877,0,3.081,3.081,0,0,1,5.755,3.251Z" transform="translate(41.686 1500.234)" fill="#13164b" opacity="0.1"/><path d="M5.755,3.251A3.081,3.081,0,0,1,2.877,6.5,3.081,3.081,0,0,1,0,3.251,3.081,3.081,0,0,1,2.877,0,3.081,3.081,0,0,1,5.755,3.251Z" transform="translate(66.623 1500.234)" fill="#13164b" opacity="0.1"/><path d="M5.755,3.251A3.081,3.081,0,0,1,2.877,6.5,3.081,3.081,0,0,1,0,3.251,3.081,3.081,0,0,1,2.877,0,3.081,3.081,0,0,1,5.755,3.251Z" transform="translate(91.56 1500.234)" fill="#13164b" opacity="0.1"/><path d="M5.755,3.251A3.081,3.081,0,0,1,2.877,6.5,3.081,3.081,0,0,1,0,3.251,3.081,3.081,0,0,1,2.877,0,3.081,3.081,0,0,1,5.755,3.251Z" transform="translate(116.497 1500.234)" fill="#13164b" opacity="0.1"/><path d="M5.755,3.251A3.081,3.081,0,0,1,2.877,6.5,3.081,3.081,0,0,1,0,3.251,3.081,3.081,0,0,1,2.877,0,3.081,3.081,0,0,1,5.755,3.251Z" transform="translate(141.434 1500.234)" fill="#13164b" opacity="0.1"/><path d="M5.755,3.251A3.081,3.081,0,0,1,2.877,6.5,3.081,3.081,0,0,1,0,3.251,3.081,3.081,0,0,1,2.877,0,3.081,3.081,0,0,1,5.755,3.251Z" transform="translate(166.371 1500.234)" fill="#13164b" opacity="0.1"/><path d="M5.755,3.251A3.081,3.081,0,0,1,2.877,6.5,3.081,3.081,0,0,1,0,3.251,3.081,3.081,0,0,1,2.877,0,3.081,3.081,0,0,1,5.755,3.251Z" transform="translate(191.308 1500.234)" fill="#13164b" opacity="0.1"/><path d="M5.755,3.251A3.081,3.081,0,0,1,2.877,6.5,3.081,3.081,0,0,1,0,3.251,3.081,3.081,0,0,1,2.877,0,3.081,3.081,0,0,1,5.755,3.251Z" transform="translate(216.245 1500.234)" fill="#13164b" opacity="0.1"/><path d="M5.755,3.252A3.082,3.082,0,0,1,2.877,6.5,3.082,3.082,0,0,1,0,3.252,3.082,3.082,0,0,1,2.877,0,3.082,3.082,0,0,1,5.755,3.252Z" transform="translate(-83 1528.411)" fill="#13164b" opacity="0.1"/><path d="M5.755,3.252A3.082,3.082,0,0,1,2.877,6.5,3.082,3.082,0,0,1,0,3.252,3.082,3.082,0,0,1,2.877,0,3.082,3.082,0,0,1,5.755,3.252Z" transform="translate(-58.063 1528.411)" fill="#13164b" opacity="0.1"/><path d="M5.755,3.252A3.082,3.082,0,0,1,2.877,6.5,3.082,3.082,0,0,1,0,3.252,3.082,3.082,0,0,1,2.877,0,3.082,3.082,0,0,1,5.755,3.252Z" transform="translate(-33.126 1528.411)" fill="#13164b" opacity="0.1"/><path d="M5.755,3.252A3.082,3.082,0,0,1,2.877,6.5,3.082,3.082,0,0,1,0,3.252,3.082,3.082,0,0,1,2.877,0,3.082,3.082,0,0,1,5.755,3.252Z" transform="translate(-8.189 1528.411)" fill="#13164b" opacity="0.1"/><path d="M5.755,3.252A3.082,3.082,0,0,1,2.877,6.5,3.082,3.082,0,0,1,0,3.252,3.082,3.082,0,0,1,2.877,0,3.082,3.082,0,0,1,5.755,3.252Z" transform="translate(16.748 1528.411)" fill="#13164b" opacity="0.1"/><path d="M5.755,3.252A3.082,3.082,0,0,1,2.877,6.5,3.082,3.082,0,0,1,0,3.252,3.082,3.082,0,0,1,2.877,0,3.082,3.082,0,0,1,5.755,3.252Z" transform="translate(41.686 1528.411)" fill="#13164b" opacity="0.1"/><path d="M5.755,3.252A3.082,3.082,0,0,1,2.877,6.5,3.082,3.082,0,0,1,0,3.252,3.082,3.082,0,0,1,2.877,0,3.082,3.082,0,0,1,5.755,3.252Z" transform="translate(66.623 1528.411)" fill="#13164b" opacity="0.1"/><path d="M5.755,3.252A3.082,3.082,0,0,1,2.877,6.5,3.082,3.082,0,0,1,0,3.252,3.082,3.082,0,0,1,2.877,0,3.082,3.082,0,0,1,5.755,3.252Z" transform="translate(91.56 1528.411)" fill="#13164b" opacity="0.1"/><path d="M5.755,3.252A3.082,3.082,0,0,1,2.877,6.5,3.082,3.082,0,0,1,0,3.252,3.082,3.082,0,0,1,2.877,0,3.082,3.082,0,0,1,5.755,3.252Z" transform="translate(116.497 1528.411)" fill="#13164b" opacity="0.1"/><path d="M5.755,3.252A3.082,3.082,0,0,1,2.877,6.5,3.082,3.082,0,0,1,0,3.252,3.082,3.082,0,0,1,2.877,0,3.082,3.082,0,0,1,5.755,3.252Z" transform="translate(141.434 1528.411)" fill="#13164b" opacity="0.1"/><path d="M5.755,3.252A3.082,3.082,0,0,1,2.877,6.5,3.082,3.082,0,0,1,0,3.252,3.082,3.082,0,0,1,2.877,0,3.082,3.082,0,0,1,5.755,3.252Z" transform="translate(166.371 1528.411)" fill="#13164b" opacity="0.1"/><path d="M5.755,3.252A3.082,3.082,0,0,1,2.877,6.5,3.082,3.082,0,0,1,0,3.252,3.082,3.082,0,0,1,2.877,0,3.082,3.082,0,0,1,5.755,3.252Z" transform="translate(191.308 1528.411)" fill="#13164b" opacity="0.1"/><path d="M5.755,3.252A3.082,3.082,0,0,1,2.877,6.5,3.082,3.082,0,0,1,0,3.252,3.082,3.082,0,0,1,2.877,0,3.082,3.082,0,0,1,5.755,3.252Z" transform="translate(216.245 1528.411)" fill="#13164b" opacity="0.1"/><path d="M5.755,3.251A3.081,3.081,0,0,1,2.877,6.5,3.081,3.081,0,0,1,0,3.251,3.081,3.081,0,0,1,2.877,0,3.081,3.081,0,0,1,5.755,3.251Z" transform="translate(-83 1556.59)" fill="#13164b" opacity="0.1"/><path d="M5.755,3.251A3.081,3.081,0,0,1,2.877,6.5,3.081,3.081,0,0,1,0,3.251,3.081,3.081,0,0,1,2.877,0,3.081,3.081,0,0,1,5.755,3.251Z" transform="translate(-58.063 1556.59)" fill="#13164b" opacity="0.1"/><path d="M5.755,3.251A3.081,3.081,0,0,1,2.877,6.5,3.081,3.081,0,0,1,0,3.251,3.081,3.081,0,0,1,2.877,0,3.081,3.081,0,0,1,5.755,3.251Z" transform="translate(-33.126 1556.59)" fill="#13164b" opacity="0.1"/><path d="M5.755,3.251A3.081,3.081,0,0,1,2.877,6.5,3.081,3.081,0,0,1,0,3.251,3.081,3.081,0,0,1,2.877,0,3.081,3.081,0,0,1,5.755,3.251Z" transform="translate(-8.189 1556.59)" fill="#13164b" opacity="0.1"/><path d="M5.755,3.251A3.081,3.081,0,0,1,2.877,6.5,3.081,3.081,0,0,1,0,3.251,3.081,3.081,0,0,1,2.877,0,3.081,3.081,0,0,1,5.755,3.251Z" transform="translate(16.748 1556.59)" fill="#13164b" opacity="0.1"/><path d="M5.755,3.251A3.081,3.081,0,0,1,2.877,6.5,3.081,3.081,0,0,1,0,3.251,3.081,3.081,0,0,1,2.877,0,3.081,3.081,0,0,1,5.755,3.251Z" transform="translate(41.686 1556.59)" fill="#13164b" opacity="0.1"/><path d="M5.755,3.251A3.081,3.081,0,0,1,2.877,6.5,3.081,3.081,0,0,1,0,3.251,3.081,3.081,0,0,1,2.877,0,3.081,3.081,0,0,1,5.755,3.251Z" transform="translate(66.623 1556.59)" fill="#13164b" opacity="0.1"/><path d="M5.755,3.251A3.081,3.081,0,0,1,2.877,6.5,3.081,3.081,0,0,1,0,3.251,3.081,3.081,0,0,1,2.877,0,3.081,3.081,0,0,1,5.755,3.251Z" transform="translate(91.56 1556.59)" fill="#13164b" opacity="0.1"/><path d="M5.755,3.251A3.081,3.081,0,0,1,2.877,6.5,3.081,3.081,0,0,1,0,3.251,3.081,3.081,0,0,1,2.877,0,3.081,3.081,0,0,1,5.755,3.251Z" transform="translate(116.497 1556.59)" fill="#13164b" opacity="0.1"/><path d="M5.755,3.251A3.081,3.081,0,0,1,2.877,6.5,3.081,3.081,0,0,1,0,3.251,3.081,3.081,0,0,1,2.877,0,3.081,3.081,0,0,1,5.755,3.251Z" transform="translate(141.434 1556.59)" fill="#13164b" opacity="0.1"/><path d="M5.755,3.251A3.081,3.081,0,0,1,2.877,6.5,3.081,3.081,0,0,1,0,3.251,3.081,3.081,0,0,1,2.877,0,3.081,3.081,0,0,1,5.755,3.251Z" transform="translate(166.371 1556.59)" fill="#13164b" opacity="0.1"/><path d="M5.755,3.251A3.081,3.081,0,0,1,2.877,6.5,3.081,3.081,0,0,1,0,3.251,3.081,3.081,0,0,1,2.877,0,3.081,3.081,0,0,1,5.755,3.251Z" transform="translate(191.308 1556.59)" fill="#13164b" opacity="0.1"/><path d="M5.755,3.251A3.081,3.081,0,0,1,2.877,6.5,3.081,3.081,0,0,1,0,3.251,3.081,3.081,0,0,1,2.877,0,3.081,3.081,0,0,1,5.755,3.251Z" transform="translate(216.245 1556.59)" fill="#13164b" opacity="0.1"/><path d="M5.755,3.251A3.081,3.081,0,0,1,2.877,6.5,3.081,3.081,0,0,1,0,3.251,3.081,3.081,0,0,1,2.877,0,3.081,3.081,0,0,1,5.755,3.251Z" transform="translate(-83 1584.767)" fill="#13164b" opacity="0.1"/><path d="M5.755,3.251A3.081,3.081,0,0,1,2.877,6.5,3.081,3.081,0,0,1,0,3.251,3.081,3.081,0,0,1,2.877,0,3.081,3.081,0,0,1,5.755,3.251Z" transform="translate(-58.063 1584.767)" fill="#13164b" opacity="0.1"/><path d="M5.755,3.251A3.081,3.081,0,0,1,2.877,6.5,3.081,3.081,0,0,1,0,3.251,3.081,3.081,0,0,1,2.877,0,3.081,3.081,0,0,1,5.755,3.251Z" transform="translate(-33.126 1584.767)" fill="#13164b" opacity="0.1"/><path d="M5.755,3.251A3.081,3.081,0,0,1,2.877,6.5,3.081,3.081,0,0,1,0,3.251,3.081,3.081,0,0,1,2.877,0,3.081,3.081,0,0,1,5.755,3.251Z" transform="translate(-8.189 1584.767)" fill="#13164b" opacity="0.1"/><path d="M5.755,3.251A3.081,3.081,0,0,1,2.877,6.5,3.081,3.081,0,0,1,0,3.251,3.081,3.081,0,0,1,2.877,0,3.081,3.081,0,0,1,5.755,3.251Z" transform="translate(16.748 1584.767)" fill="#13164b" opacity="0.1"/><path d="M5.755,3.251A3.081,3.081,0,0,1,2.877,6.5,3.081,3.081,0,0,1,0,3.251,3.081,3.081,0,0,1,2.877,0,3.081,3.081,0,0,1,5.755,3.251Z" transform="translate(41.686 1584.767)" fill="#13164b" opacity="0.1"/><path d="M5.755,3.251A3.081,3.081,0,0,1,2.877,6.5,3.081,3.081,0,0,1,0,3.251,3.081,3.081,0,0,1,2.877,0,3.081,3.081,0,0,1,5.755,3.251Z" transform="translate(66.623 1584.767)" fill="#13164b" opacity="0.1"/><path d="M5.755,3.251A3.081,3.081,0,0,1,2.877,6.5,3.081,3.081,0,0,1,0,3.251,3.081,3.081,0,0,1,2.877,0,3.081,3.081,0,0,1,5.755,3.251Z" transform="translate(91.56 1584.767)" fill="#13164b" opacity="0.1"/><path d="M5.755,3.251A3.081,3.081,0,0,1,2.877,6.5,3.081,3.081,0,0,1,0,3.251,3.081,3.081,0,0,1,2.877,0,3.081,3.081,0,0,1,5.755,3.251Z" transform="translate(116.497 1584.767)" fill="#13164b" opacity="0.1"/><path d="M5.755,3.251A3.081,3.081,0,0,1,2.877,6.5,3.081,3.081,0,0,1,0,3.251,3.081,3.081,0,0,1,2.877,0,3.081,3.081,0,0,1,5.755,3.251Z" transform="translate(141.434 1584.767)" fill="#13164b" opacity="0.1"/><path d="M5.755,3.251A3.081,3.081,0,0,1,2.877,6.5,3.081,3.081,0,0,1,0,3.251,3.081,3.081,0,0,1,2.877,0,3.081,3.081,0,0,1,5.755,3.251Z" transform="translate(166.371 1584.767)" fill="#13164b" opacity="0.1"/><path d="M5.755,3.251A3.081,3.081,0,0,1,2.877,6.5,3.081,3.081,0,0,1,0,3.251,3.081,3.081,0,0,1,2.877,0,3.081,3.081,0,0,1,5.755,3.251Z" transform="translate(191.308 1584.767)" fill="#13164b" opacity="0.1"/><path d="M5.755,3.251A3.081,3.081,0,0,1,2.877,6.5,3.081,3.081,0,0,1,0,3.251,3.081,3.081,0,0,1,2.877,0,3.081,3.081,0,0,1,5.755,3.251Z" transform="translate(216.245 1584.767)" fill="#13164b" opacity="0.1"/><path d="M5.755,3.251A3.082,3.082,0,0,1,2.877,6.5,3.082,3.082,0,0,1,0,3.251,3.082,3.082,0,0,1,2.877,0,3.082,3.082,0,0,1,5.755,3.251Z" transform="translate(-83 1612.944)" fill="#13164b" opacity="0.1"/><path d="M5.755,3.251A3.082,3.082,0,0,1,2.877,6.5,3.082,3.082,0,0,1,0,3.251,3.082,3.082,0,0,1,2.877,0,3.082,3.082,0,0,1,5.755,3.251Z" transform="translate(-58.063 1612.944)" fill="#13164b" opacity="0.1"/><path d="M5.755,3.251A3.082,3.082,0,0,1,2.877,6.5,3.082,3.082,0,0,1,0,3.251,3.082,3.082,0,0,1,2.877,0,3.082,3.082,0,0,1,5.755,3.251Z" transform="translate(-33.126 1612.944)" fill="#13164b" opacity="0.1"/><path d="M5.755,3.251A3.082,3.082,0,0,1,2.877,6.5,3.082,3.082,0,0,1,0,3.251,3.082,3.082,0,0,1,2.877,0,3.082,3.082,0,0,1,5.755,3.251Z" transform="translate(-8.189 1612.944)" fill="#13164b" opacity="0.1"/><path d="M5.755,3.251A3.082,3.082,0,0,1,2.877,6.5,3.082,3.082,0,0,1,0,3.251,3.082,3.082,0,0,1,2.877,0,3.082,3.082,0,0,1,5.755,3.251Z" transform="translate(16.748 1612.944)" fill="#13164b" opacity="0.1"/><path d="M5.755,3.251A3.082,3.082,0,0,1,2.877,6.5,3.082,3.082,0,0,1,0,3.251,3.082,3.082,0,0,1,2.877,0,3.082,3.082,0,0,1,5.755,3.251Z" transform="translate(41.686 1612.944)" fill="#13164b" opacity="0.1"/><path d="M5.755,3.251A3.082,3.082,0,0,1,2.877,6.5,3.082,3.082,0,0,1,0,3.251,3.082,3.082,0,0,1,2.877,0,3.082,3.082,0,0,1,5.755,3.251Z" transform="translate(66.623 1612.944)" fill="#13164b" opacity="0.1"/><path d="M5.755,3.251A3.082,3.082,0,0,1,2.877,6.5,3.082,3.082,0,0,1,0,3.251,3.082,3.082,0,0,1,2.877,0,3.082,3.082,0,0,1,5.755,3.251Z" transform="translate(91.56 1612.944)" fill="#13164b" opacity="0.1"/><path d="M5.755,3.251A3.082,3.082,0,0,1,2.877,6.5,3.082,3.082,0,0,1,0,3.251,3.082,3.082,0,0,1,2.877,0,3.082,3.082,0,0,1,5.755,3.251Z" transform="translate(116.497 1612.944)" fill="#13164b" opacity="0.1"/><path d="M5.755,3.251A3.082,3.082,0,0,1,2.877,6.5,3.082,3.082,0,0,1,0,3.251,3.082,3.082,0,0,1,2.877,0,3.082,3.082,0,0,1,5.755,3.251Z" transform="translate(141.434 1612.944)" fill="#13164b" opacity="0.1"/><path d="M5.755,3.251A3.082,3.082,0,0,1,2.877,6.5,3.082,3.082,0,0,1,0,3.251,3.082,3.082,0,0,1,2.877,0,3.082,3.082,0,0,1,5.755,3.251Z" transform="translate(166.371 1612.944)" fill="#13164b" opacity="0.1"/><path d="M5.755,3.251A3.082,3.082,0,0,1,2.877,6.5,3.082,3.082,0,0,1,0,3.251,3.082,3.082,0,0,1,2.877,0,3.082,3.082,0,0,1,5.755,3.251Z" transform="translate(191.308 1612.944)" fill="#13164b" opacity="0.1"/><path d="M5.755,3.251A3.082,3.082,0,0,1,2.877,6.5,3.082,3.082,0,0,1,0,3.251,3.082,3.082,0,0,1,2.877,0,3.082,3.082,0,0,1,5.755,3.251Z" transform="translate(216.245 1612.944)" fill="#13164b" opacity="0.1"/><path d="M5.755,3.251A3.082,3.082,0,0,1,2.877,6.5,3.082,3.082,0,0,1,0,3.251,3.082,3.082,0,0,1,2.877,0,3.082,3.082,0,0,1,5.755,3.251Z" transform="translate(-83 1641.123)" fill="#13164b" opacity="0.1"/><path d="M5.755,3.251A3.082,3.082,0,0,1,2.877,6.5,3.082,3.082,0,0,1,0,3.251,3.082,3.082,0,0,1,2.877,0,3.082,3.082,0,0,1,5.755,3.251Z" transform="translate(-58.063 1641.123)" fill="#13164b" opacity="0.1"/><path d="M5.755,3.251A3.082,3.082,0,0,1,2.877,6.5,3.082,3.082,0,0,1,0,3.251,3.082,3.082,0,0,1,2.877,0,3.082,3.082,0,0,1,5.755,3.251Z" transform="translate(-33.126 1641.123)" fill="#13164b" opacity="0.1"/><path d="M5.755,3.251A3.082,3.082,0,0,1,2.877,6.5,3.082,3.082,0,0,1,0,3.251,3.082,3.082,0,0,1,2.877,0,3.082,3.082,0,0,1,5.755,3.251Z" transform="translate(-8.189 1641.123)" fill="#13164b" opacity="0.1"/><path d="M5.755,3.251A3.082,3.082,0,0,1,2.877,6.5,3.082,3.082,0,0,1,0,3.251,3.082,3.082,0,0,1,2.877,0,3.082,3.082,0,0,1,5.755,3.251Z" transform="translate(16.748 1641.123)" fill="#13164b" opacity="0.1"/><path d="M5.755,3.251A3.082,3.082,0,0,1,2.877,6.5,3.082,3.082,0,0,1,0,3.251,3.082,3.082,0,0,1,2.877,0,3.082,3.082,0,0,1,5.755,3.251Z" transform="translate(41.686 1641.123)" fill="#13164b" opacity="0.1"/><path d="M5.755,3.251A3.082,3.082,0,0,1,2.877,6.5,3.082,3.082,0,0,1,0,3.251,3.082,3.082,0,0,1,2.877,0,3.082,3.082,0,0,1,5.755,3.251Z" transform="translate(66.623 1641.123)" fill="#13164b" opacity="0.1"/><path d="M5.755,3.251A3.082,3.082,0,0,1,2.877,6.5,3.082,3.082,0,0,1,0,3.251,3.082,3.082,0,0,1,2.877,0,3.082,3.082,0,0,1,5.755,3.251Z" transform="translate(91.56 1641.123)" fill="#13164b" opacity="0.1"/><path d="M5.755,3.251A3.082,3.082,0,0,1,2.877,6.5,3.082,3.082,0,0,1,0,3.251,3.082,3.082,0,0,1,2.877,0,3.082,3.082,0,0,1,5.755,3.251Z" transform="translate(116.497 1641.123)" fill="#13164b" opacity="0.1"/><path d="M5.755,3.251A3.082,3.082,0,0,1,2.877,6.5,3.082,3.082,0,0,1,0,3.251,3.082,3.082,0,0,1,2.877,0,3.082,3.082,0,0,1,5.755,3.251Z" transform="translate(141.434 1641.123)" fill="#13164b" opacity="0.1"/><path d="M5.755,3.251A3.082,3.082,0,0,1,2.877,6.5,3.082,3.082,0,0,1,0,3.251,3.082,3.082,0,0,1,2.877,0,3.082,3.082,0,0,1,5.755,3.251Z" transform="translate(166.371 1641.123)" fill="#13164b" opacity="0.1"/><path d="M5.755,3.251A3.082,3.082,0,0,1,2.877,6.5,3.082,3.082,0,0,1,0,3.251,3.082,3.082,0,0,1,2.877,0,3.082,3.082,0,0,1,5.755,3.251Z" transform="translate(191.308 1641.123)" fill="#13164b" opacity="0.1"/><path d="M5.755,3.251A3.082,3.082,0,0,1,2.877,6.5,3.082,3.082,0,0,1,0,3.251,3.082,3.082,0,0,1,2.877,0,3.082,3.082,0,0,1,5.755,3.251Z" transform="translate(216.245 1641.123)" fill="#13164b" opacity="0.1"/><path d="M5.755,3.251A3.082,3.082,0,0,1,2.877,6.5,3.082,3.082,0,0,1,0,3.251,3.082,3.082,0,0,1,2.877,0,3.082,3.082,0,0,1,5.755,3.251Z" transform="translate(-83 1669.3)" fill="#13164b" opacity="0.1"/><path d="M5.755,3.251A3.082,3.082,0,0,1,2.877,6.5,3.082,3.082,0,0,1,0,3.251,3.082,3.082,0,0,1,2.877,0,3.082,3.082,0,0,1,5.755,3.251Z" transform="translate(-58.063 1669.3)" fill="#13164b" opacity="0.1"/><path d="M5.755,3.251A3.082,3.082,0,0,1,2.877,6.5,3.082,3.082,0,0,1,0,3.251,3.082,3.082,0,0,1,2.877,0,3.082,3.082,0,0,1,5.755,3.251Z" transform="translate(-33.126 1669.3)" fill="#13164b" opacity="0.1"/><path d="M5.755,3.251A3.082,3.082,0,0,1,2.877,6.5,3.082,3.082,0,0,1,0,3.251,3.082,3.082,0,0,1,2.877,0,3.082,3.082,0,0,1,5.755,3.251Z" transform="translate(-8.189 1669.3)" fill="#13164b" opacity="0.1"/><path d="M5.755,3.251A3.082,3.082,0,0,1,2.877,6.5,3.082,3.082,0,0,1,0,3.251,3.082,3.082,0,0,1,2.877,0,3.082,3.082,0,0,1,5.755,3.251Z" transform="translate(16.748 1669.3)" fill="#13164b" opacity="0.1"/><path d="M5.755,3.251A3.082,3.082,0,0,1,2.877,6.5,3.082,3.082,0,0,1,0,3.251,3.082,3.082,0,0,1,2.877,0,3.082,3.082,0,0,1,5.755,3.251Z" transform="translate(41.686 1669.3)" fill="#13164b" opacity="0.1"/><path d="M5.755,3.251A3.082,3.082,0,0,1,2.877,6.5,3.082,3.082,0,0,1,0,3.251,3.082,3.082,0,0,1,2.877,0,3.082,3.082,0,0,1,5.755,3.251Z" transform="translate(66.623 1669.3)" fill="#13164b" opacity="0.1"/><path d="M5.755,3.251A3.082,3.082,0,0,1,2.877,6.5,3.082,3.082,0,0,1,0,3.251,3.082,3.082,0,0,1,2.877,0,3.082,3.082,0,0,1,5.755,3.251Z" transform="translate(91.56 1669.3)" fill="#13164b" opacity="0.1"/><path d="M5.755,3.251A3.082,3.082,0,0,1,2.877,6.5,3.082,3.082,0,0,1,0,3.251,3.082,3.082,0,0,1,2.877,0,3.082,3.082,0,0,1,5.755,3.251Z" transform="translate(116.497 1669.3)" fill="#13164b" opacity="0.1"/><path d="M5.755,3.251A3.082,3.082,0,0,1,2.877,6.5,3.082,3.082,0,0,1,0,3.251,3.082,3.082,0,0,1,2.877,0,3.082,3.082,0,0,1,5.755,3.251Z" transform="translate(141.434 1669.3)" fill="#13164b" opacity="0.1"/><path d="M5.755,3.251A3.082,3.082,0,0,1,2.877,6.5,3.082,3.082,0,0,1,0,3.251,3.082,3.082,0,0,1,2.877,0,3.082,3.082,0,0,1,5.755,3.251Z" transform="translate(166.371 1669.3)" fill="#13164b" opacity="0.1"/><path d="M5.755,3.251A3.082,3.082,0,0,1,2.877,6.5,3.082,3.082,0,0,1,0,3.251,3.082,3.082,0,0,1,2.877,0,3.082,3.082,0,0,1,5.755,3.251Z" transform="translate(191.308 1669.3)" fill="#13164b" opacity="0.1"/><path d="M5.755,3.251A3.082,3.082,0,0,1,2.877,6.5,3.082,3.082,0,0,1,0,3.251,3.082,3.082,0,0,1,2.877,0,3.082,3.082,0,0,1,5.755,3.251Z" transform="translate(216.245 1669.3)" fill="#13164b" opacity="0.1"/><path d="M5.755,3.251A3.082,3.082,0,0,1,2.877,6.5,3.082,3.082,0,0,1,0,3.251,3.082,3.082,0,0,1,2.877,0,3.082,3.082,0,0,1,5.755,3.251Z" transform="translate(-83 1697.477)" fill="#13164b" opacity="0.1"/><path d="M5.755,3.251A3.082,3.082,0,0,1,2.877,6.5,3.082,3.082,0,0,1,0,3.251,3.082,3.082,0,0,1,2.877,0,3.082,3.082,0,0,1,5.755,3.251Z" transform="translate(-58.063 1697.477)" fill="#13164b" opacity="0.1"/><path d="M5.755,3.251A3.082,3.082,0,0,1,2.877,6.5,3.082,3.082,0,0,1,0,3.251,3.082,3.082,0,0,1,2.877,0,3.082,3.082,0,0,1,5.755,3.251Z" transform="translate(-33.126 1697.477)" fill="#13164b" opacity="0.1"/><path d="M5.755,3.251A3.082,3.082,0,0,1,2.877,6.5,3.082,3.082,0,0,1,0,3.251,3.082,3.082,0,0,1,2.877,0,3.082,3.082,0,0,1,5.755,3.251Z" transform="translate(-8.189 1697.477)" fill="#13164b" opacity="0.1"/><path d="M5.755,3.251A3.082,3.082,0,0,1,2.877,6.5,3.082,3.082,0,0,1,0,3.251,3.082,3.082,0,0,1,2.877,0,3.082,3.082,0,0,1,5.755,3.251Z" transform="translate(16.748 1697.477)" fill="#13164b" opacity="0.1"/><path d="M5.755,3.251A3.082,3.082,0,0,1,2.877,6.5,3.082,3.082,0,0,1,0,3.251,3.082,3.082,0,0,1,2.877,0,3.082,3.082,0,0,1,5.755,3.251Z" transform="translate(41.686 1697.477)" fill="#13164b" opacity="0.1"/><path d="M5.755,3.251A3.082,3.082,0,0,1,2.877,6.5,3.082,3.082,0,0,1,0,3.251,3.082,3.082,0,0,1,2.877,0,3.082,3.082,0,0,1,5.755,3.251Z" transform="translate(66.623 1697.477)" fill="#13164b" opacity="0.1"/><path d="M5.755,3.251A3.082,3.082,0,0,1,2.877,6.5,3.082,3.082,0,0,1,0,3.251,3.082,3.082,0,0,1,2.877,0,3.082,3.082,0,0,1,5.755,3.251Z" transform="translate(91.56 1697.477)" fill="#13164b" opacity="0.1"/><path d="M5.755,3.251A3.082,3.082,0,0,1,2.877,6.5,3.082,3.082,0,0,1,0,3.251,3.082,3.082,0,0,1,2.877,0,3.082,3.082,0,0,1,5.755,3.251Z" transform="translate(116.497 1697.477)" fill="#13164b" opacity="0.1"/><path d="M5.755,3.251A3.082,3.082,0,0,1,2.877,6.5,3.082,3.082,0,0,1,0,3.251,3.082,3.082,0,0,1,2.877,0,3.082,3.082,0,0,1,5.755,3.251Z" transform="translate(141.434 1697.477)" fill="#13164b" opacity="0.1"/><path d="M5.755,3.251A3.082,3.082,0,0,1,2.877,6.5,3.082,3.082,0,0,1,0,3.251,3.082,3.082,0,0,1,2.877,0,3.082,3.082,0,0,1,5.755,3.251Z" transform="translate(166.371 1697.477)" fill="#13164b" opacity="0.1"/><path d="M5.755,3.251A3.082,3.082,0,0,1,2.877,6.5,3.082,3.082,0,0,1,0,3.251,3.082,3.082,0,0,1,2.877,0,3.082,3.082,0,0,1,5.755,3.251Z" transform="translate(191.308 1697.477)" fill="#13164b" opacity="0.1"/><path d="M5.755,3.251A3.082,3.082,0,0,1,2.877,6.5,3.082,3.082,0,0,1,0,3.251,3.082,3.082,0,0,1,2.877,0,3.082,3.082,0,0,1,5.755,3.251Z" transform="translate(216.245 1697.477)" fill="#13164b" opacity="0.1"/></g></svg>