<svg xmlns="http://www.w3.org/2000/svg" width="600.911" height="557.77" viewBox="0 0 600.911 557.77"><g transform="translate(0)" opacity="0.1"><path d="M474.052,279.6a124.588,124.588,0,0,0-44.447,36.968c-2.958,4-6.162,8.288-8.225,12.869-1.471.986-2.958,1.944-4.477,2.846-.714.424-1.442.82-2.162,1.23a100.362,100.362,0,0,0,20.352-30.322c5.334-4.064,8.914-10.512,11.747-16.469a69.375,69.375,0,0,0,6.1-20.667,68.2,68.2,0,0,0-6.088-37.88,73.1,73.1,0,0,0-11.909-17.562,1.318,1.318,0,0,0-2.234.359,112.88,112.88,0,0,0-5.841,36.9,119.22,119.22,0,0,0,1.545,18.425c1.054,6.424,2.773,12.722,3.769,19.154a48.09,48.09,0,0,1-.969,19.953,98.462,98.462,0,0,1-38.365,41.7c-1.85,1.093-3.737,2.106-5.655,3.061q1.346-1.291,2.643-2.63,1.137-1.172,2.236-2.376c2.357-.152,4.03-1.695,5.875-3.165a68.957,68.957,0,0,0,5.993-5.389A69.53,69.53,0,0,0,424.08,292.7a71.445,71.445,0,0,0-1.055-18.759,1.47,1.47,0,0,0-2.6-.614,135.939,135.939,0,0,0-27.268,52.3c-.858,3.236-1.606,6.5-2.309,9.771a61.248,61.248,0,0,0-1.654,9.253c-.363.413-.719.831-1.089,1.239-1.615,1.774-3.312,3.465-5.026,5.143-.617.606-1.338,1.235-2,1.912-3.621,1.482-7.345,2.7-10.933,4.257-6.641,2.882-13.091,8.353-12.585,16.3.5,7.805,9.756,12.128,15.949,7.147a9.244,9.244,0,0,0,3.025-10.333,6.7,6.7,0,0,0-9.268-3.849c-3.276,1.6-4.95,6.974-1.017,8.95,3.24,1.626,6.711-2.873,3.615-5.162-1.264-.935-3.036.824-1.936,2.035.027.03-.02.131-.112.225-.255.263-.556-.819-.561-.845a1.946,1.946,0,0,1,.617-1.677,3.44,3.44,0,0,1,4.107-.468c2.881,1.866,2,6.236-.154,8.241a6.6,6.6,0,0,1-8.919.053c-2.309-2.1-2.507-5.458-1.561-8.266,2.232-6.622,9.24-9.167,15.232-11.374a104.576,104.576,0,0,0,18.477-8.9,101.213,101.213,0,0,0,14.428-10.723,14.563,14.563,0,0,0,3.163-1.247c1.907-.843,3.766-1.789,5.593-2.792q3.171-1.741,6.22-3.683c3.929.571,8.2-.644,11.854-1.95a46.218,46.218,0,0,0,11.859-6.459c8.36-6.194,14.492-14.77,19.425-23.826,3.055-5.6,5.71-11.411,8.346-17.221a1.413,1.413,0,0,0-1.883-1.77m-28.4,3.055a66.188,66.188,0,0,1-5.572,10.565c-.826,1.271-1.7,2.495-2.584,3.715a94.483,94.483,0,0,0,3.524-12.883,4.838,4.838,0,0,0,.858-.321c.449-.228.888-.5,1.313-.766.877-.56,1.724-1.171,2.545-1.812.259-.2.5-.432.75-.641-.27.716-.538,1.436-.834,2.144m4.873-24.127c.04-.058.088-.12.13-.178a66.3,66.3,0,0,1-2.913,18.521c-.335.282-.635.63-.873.86q-1.065,1.022-2.206,1.958-1.111.9-2.292,1.714-.494.338-.986.679a108.48,108.48,0,0,0,1.619-15.068,10.858,10.858,0,0,0,2.048-1.855q1.488-1.544,2.861-3.192c.917-1.109,1.794-2.252,2.613-3.437m.07-3.936c-.219.343-.422.7-.634,1.031q-.542.85-1.115,1.68c-.789,1.144-1.614,2.267-2.48,3.356q-1.255,1.574-2.623,3.056c-.231.25-.453.507-.68.761.018-1.612.007-3.223-.053-4.834a101.708,101.708,0,0,0-1.1-12.3c.112-.3.2-.613.309-.907q.376-1.058.754-2.117.724-2.034,1.436-4.075c.711-2.043,1.438-4.081,2.139-6.128a67.2,67.2,0,0,1,4.05,20.482m-19.825-21.387a128.836,128.836,0,0,1,3.791-19.174,62.243,62.243,0,0,1,11.224,18.123c-1.012,2.546-1.943,5.127-2.91,7.691q-.793,2.1-1.569,4.21l-.012.03a46.2,46.2,0,0,0-2.533-8.252.518.518,0,0,0-.978.3c.672,4.355,1.711,8.639,2.313,13.008.1.735.182,1.473.269,2.211q-.749-.745-1.495-1.491c-1.038-1.035-2.071-2.072-3.119-3.1s-2.091-2.054-3.151-3.067a22.4,22.4,0,0,0-2.481-2.334c.125-2.72.328-5.44.652-8.158m.8,11.742c1.012,1.055,2.033,2.1,3.051,3.151s2.054,2.083,3.083,3.122a29.555,29.555,0,0,0,2.945,2.925c.237,2.734.378,5.474.39,8.217a97.17,97.17,0,0,1-.708,12.03c-.557-.451-1.115-.9-1.65-1.378a34.911,34.911,0,0,1-3.2-3.256,39.278,39.278,0,0,1-2.739-3.461c-.517-.754-1-1.534-1.487-2.31m1.239,7.1c-.223-1.089-.428-2.179-.622-3.272a32.762,32.762,0,0,0,2.306,3.161,39.243,39.243,0,0,0,3.214,3.365q.856.8,1.761,1.542a2.156,2.156,0,0,0,.915.559,96.912,96.912,0,0,1-2.472,11.964c-.39-.564-.777-1.129-1.194-1.673-.44-.573-.891-1.141-1.342-1.705-.6-4.685-1.619-9.313-2.565-13.94m3.039,19.315c-.027-.645-.073-1.289-.123-1.931.271.424.538.85.816,1.268q.322.48.641.961l.041.058c-.435,1.438-.889,2.868-1.384,4.281.081-1.558.074-3.115.009-4.637m-37.54,47.626c.244-.325.5-.642.739-.971,1.523-2.079,2.948-4.222,4.295-6.412a5.847,5.847,0,0,0,.8-.08,13.5,13.5,0,0,0,2.012-.526l.02-.008c-.781.949-1.583,1.882-2.421,2.79a65.31,65.31,0,0,1-5.447,5.207m10.173-10.976a2.328,2.328,0,0,0-.519.281l-.074.046-.169.1-.051.031q-.2.117-.4.227a12.078,12.078,0,0,1-1.7.77,10.268,10.268,0,0,1-1.14.333c.671-1.147,1.325-2.3,1.95-3.48.173-.324.344-.65.517-.977.085-.059.171-.115.256-.175q1.558-1.117,3.1-2.255,1.421-1.05,2.843-2.1a67.686,67.686,0,0,1-4.613,7.194m10.357-20.905a68.274,68.274,0,0,1-3.574,9.407c-.036.028-.082.046-.1.092-.059.167-.126.317-.188.471a33.691,33.691,0,0,0-2.836,2.087l-2.954,2.229c-.171.13-.34.262-.51.391.248-.54.486-1.081.708-1.629a23.175,23.175,0,0,0,1.322-4.991c.608-1.41,1.183-2.835,1.743-4.265a6.723,6.723,0,0,0,1.627-.845c.792-.48,1.588-.958,2.373-1.45l2.313-1.452.073-.046m2.152-28.529a67.663,67.663,0,0,1-1.419,25.926,5.263,5.263,0,0,0-.672.39c-.383.244-.762.494-1.144.741l-2.29,1.479c-.715.461-1.421.936-2.128,1.41.4-1.1.816-2.2,1.185-3.307.5-1.51.976-3.026,1.406-4.558a15.912,15.912,0,0,0,.939-4.671c-.015-.4-.54-.719-.812-.306a21.708,21.708,0,0,0-1.92,4.844q-.5,1.419-1.007,2.833c-.121-.38-.248-.758-.358-1.131-.294-1-.6-2-.908-2.993-.3-.98-.588-1.965-.9-2.94-.155-.486-.3-.982-.482-1.457a2.148,2.148,0,0,0-.316-.6,138.652,138.652,0,0,1,10.828-15.662m-11.807,17.338c.07.286.134.573.2.858.248.994.521,1.985.783,2.978s.519,1.986.791,2.975a19.436,19.436,0,0,0,.9,3,.9.9,0,0,0,.256.324c-1.271,3.246-2.574,6.471-4.03,9.639-.479,1.044-.993,2.072-1.5,3.1,0-.027,0-.055-.007-.082a30.3,30.3,0,0,0-.793-4.207,34.371,34.371,0,0,0-1.284-3.97,21.194,21.194,0,0,0-1.337-2.9q2.726-6,6.019-11.72m-6.845,13.564c.221.537.445,1.075.636,1.623a32.041,32.041,0,0,1,1.085,3.914,36.429,36.429,0,0,1,.588,3.909c.067.68.116,1.363.135,2.045a10.278,10.278,0,0,0,.041,1.318c-.548,1.052-1.09,2.109-1.664,3.149-.857,1.55-1.867,3.067-2.734,4.641a33.813,33.813,0,0,0-1.124-3.67q-.522-1.439-1.166-2.831c-.188-.406-.374-.823-.583-1.225a130.846,130.846,0,0,1,4.786-12.875m-6.232,17.725c.231-.827.486-1.647.73-2.471.269.757.528,1.517.741,2.29.528,1.925.81,3.882,1.2,5.833a1.1,1.1,0,0,0,.142.351c-.7,1.065-1.4,2.124-2.131,3.161q-2.032,2.882-4.245,5.633c.331-1.475.614-2.962.942-4.4.793-3.484,1.657-6.95,2.619-10.393m49.573-23.3q4.341-4.088,9.056-7.738c-.134.332-.267.664-.4.992-.407.981-.826,1.958-1.216,2.945q-.625,1.587-1.252,3.175a5.19,5.19,0,0,0-.524,1.79c-1.754,1.844-3.553,3.647-5.346,5.455-.318.322-.645.638-.966.959a20.878,20.878,0,0,0-2.1,1.256q.362-1.346.726-2.693c.317-1.178.632-2.356.932-3.538.174-.681.371-1.371.534-2.066.186-.177.366-.362.553-.538m-12.486,13.467a136.258,136.258,0,0,1,9.546-10.6q-.445,1.459-.877,2.921-.518,1.751-1.034,3.5c-.189.641-.4,1.287-.6,1.936-1.16,1.178-2.331,2.345-3.543,3.472s-2.47,2.215-3.733,3.292c0-.174.009-.348.014-.524.019-.766.028-1.533.042-2.3.007-.383.023-.768.012-1.151,0-.108,0-.216,0-.324.058-.073.113-.148.173-.221m-5.892,9.052c-.465.345-.938.685-1.407,1.027.662-1.032,1.325-2.063,2.024-3.064,1.092-1.565,2.233-3.094,3.4-4.606q-.042.712-.08,1.426c-.036.733-.069,1.465-.1,2.2-1.26,1.028-2.527,2.05-3.832,3.02m4.745,1.781c-.918.223-1.846.371-2.775.5.569-.418,1.113-.868,1.674-1.3.1.015.194.036.293.049.479.054.957.1,1.438.128.451.027.9.055,1.353.069q-.984.3-1.983.548m7.727-2.855c-1.123.553-2.273,1.051-3.442,1.5a1.559,1.559,0,0,1-.38-.169,1.229,1.229,0,0,0-.484-.169,2.633,2.633,0,0,0-1.22-.217c-.482-.027-.963-.035-1.446-.046-.12,0-.239,0-.359,0,1.8-1.429,3.566-2.9,5.263-4.443.56-.026,1.121-.072,1.67-.107,1.206-.074,2.41-.161,3.615-.248,1.183-.086,2.371-.162,3.557-.251a45.421,45.421,0,0,1-6.773,4.146m13.3-9.814c-1.1,1.12-2.252,2.18-3.443,3.2-2.327.186-4.647.524-6.961.823q-1.5.194-3,.4c1.079-1.036,2.144-2.089,3.18-3.171.108-.112.189-.227.29-.339,1.472-1.422,2.932-2.856,4.361-4.319.625-.64,1.225-1.3,1.834-1.955a38.223,38.223,0,0,0,4.937-.908q2.465-.522,4.926-1.056a63.827,63.827,0,0,1-6.128,7.322m7.579-9.4a.824.824,0,0,0-.256.005q-3.2.721-6.4,1.455c-.94.216-1.906.41-2.859.642q1.257-1.394,2.5-2.8c1.029-1.158,2.047-2.326,3.037-3.518a11.95,11.95,0,0,0,2.508-3.65.451.451,0,0,0-.6-.563,12.7,12.7,0,0,0-3.123,2.916c-.354.382-.7.766-1.057,1.151l.39-1.036c.374-.993.719-2,1.074-3a25.912,25.912,0,0,0,1.048-3.2c0-.005,0-.011,0-.016a124.141,124.141,0,0,1,15.066-9.582,148.444,148.444,0,0,1-11.331,21.193" transform="translate(124.867 73.395)" fill="#13164b"/><path d="M377.534,325.39a2.975,2.975,0,0,0,.08-.393,3.977,3.977,0,0,0-.016-.646,3.233,3.233,0,0,0-.2-.78,2.536,2.536,0,0,0-.271-.52,2.57,2.57,0,0,0-.341-.479,3.439,3.439,0,0,0-.611-.541,5.46,5.46,0,0,0-.573-.309,1.041,1.041,0,0,0-.167-.062,4.072,4.072,0,0,0-.634-.143,3.688,3.688,0,0,0-.648.009,2.8,2.8,0,0,0-.764.193,3.09,3.09,0,0,0-1.235.927,1.623,1.623,0,0,0-.2.271,3.289,3.289,0,0,0-.533,1.5,1.37,1.37,0,0,0-.005.166,4.658,4.658,0,0,0,.028.611,1.312,1.312,0,0,0,.035.161,4.185,4.185,0,0,0,.182.576,2.817,2.817,0,0,0,.193.333,2.569,2.569,0,0,0,.219.332c.055.063.123.117.183.177a.909.909,0,0,0,.188.229,1.325,1.325,0,0,0,.206.189,5.069,5.069,0,0,0,.565.306,3.224,3.224,0,0,0,1.594.22,1.625,1.625,0,0,0,.351-.051,3.557,3.557,0,0,0,.768-.263,3.2,3.2,0,0,0,.664-.436,5.743,5.743,0,0,0,.424-.445,1.079,1.079,0,0,0,.107-.154,4.368,4.368,0,0,0,.3-.561,2.628,2.628,0,0,0,.112-.416" transform="translate(129.718 112.286)" fill="#13164b"/><path d="M383.537,321.3a1.627,1.627,0,0,0,.046-.855c-.055-.179-.109-.359-.165-.538a2.2,2.2,0,0,0-.707-.87,1.484,1.484,0,0,0-.635-.337,2.281,2.281,0,0,0-2.685.768,2.1,2.1,0,0,0-.061,2.724,2.109,2.109,0,0,0,.488.429l.065.062a1.75,1.75,0,0,0,.842.363A2.261,2.261,0,0,0,381.9,323a1.135,1.135,0,0,0,.386-.174l-.086.07c.074-.035.136-.085.208-.124.007-.005.016-.005.023-.011s.03-.023.047-.032a2.19,2.19,0,0,0,.712-.629,1.662,1.662,0,0,0,.347-.805" transform="translate(132.317 111.248)" fill="#13164b"/><path d="M389.517,316.478a.824.824,0,0,0,.043-.424,1.227,1.227,0,0,0-.131-.607c-.072-.119-.146-.236-.217-.355-.1-.1-.2-.193-.306-.29a1.823,1.823,0,0,0-1.229-.29l-.085.016c-.134.042-.269.082-.4.123a1.234,1.234,0,0,0-.506.375.822.822,0,0,0-.251.349,1.255,1.255,0,0,0-.205.623c.015.468-.022.306.077.629a.825.825,0,0,0,.17.381,1.241,1.241,0,0,0,.418.471l0,0,.386.209a1.235,1.235,0,0,0,.645.092.8.8,0,0,0,.413-.069,1.27,1.27,0,0,0,.563-.282c.02-.018.045-.035.068-.053.1-.1.194-.2.29-.3a1.229,1.229,0,0,0,.256-.6" transform="translate(134.89 109.834)" fill="#13164b"/><path d="M372.793,359.62a58.854,58.854,0,0,0-7.278-5.547,20.331,20.331,0,0,1-3.373-2.739c-.486-.523-.859-1.22-1.314-1.8-.005-.4,0-.789.008-1.183a42,42,0,0,1,6.227-16.929,43.652,43.652,0,0,1,20.754-16.605c2.013-.772,4.064-1.4,6.077-2.176.6-.229.463-1.293-.213-1.276-6.822.162-13.611,3.933-18.884,8.052a45.574,45.574,0,0,0-10.554,11.713c-.6.615-1.117,1.34-1.727,1.936A21.67,21.67,0,0,1,359,335.782a76.853,76.853,0,0,1-8.931,4.412c-5.344,2.5-10.616,5.948-12.346,11.921a1.022,1.022,0,0,0,.849,1.36c8.73.758,15.762-5.143,20.824-11.609.049-.062.094-.127.143-.19-3.856,13.847-.413,29-5.752,42.6-2.855,7.275-8.352,13.1-16.321,14.3a17.786,17.786,0,0,1-18.247-8.261A16.382,16.382,0,0,1,320.64,371.1c4.563-5.273,12.962-7.714,19.006-3.416,3.724,2.649,4.655,7.424,3.167,11.6-1.3,3.648-4.867,7.391-9.094,6.56-3.021-.592-6.024-3.172-4.853-6.49a4.241,4.241,0,0,1,2.673-2.758,2.439,2.439,0,0,1,2.3.478c.225.258.367,1.055.189,1.061a2.249,2.249,0,0,0-2.367,1.963,2.186,2.186,0,0,0,1.965,2.367,4.918,4.918,0,0,0,2.967-8.754c-3.2-2.744-7.826-1.61-10.335,1.442a8.71,8.71,0,0,0-.428,10.635,10.443,10.443,0,0,0,10.772,3.663c8.715-2.07,13-13.739,8.152-21.11-5.021-7.641-15.92-7.438-22.82-2.753a19.191,19.191,0,0,0-7.492,21.712,20.633,20.633,0,0,0,18.79,14.513c9.085.39,17-4.822,21.264-12.676,4.875-8.972,5.014-19.309,5.344-29.249.023-.706.053-1.409.085-2.112a26.943,26.943,0,0,0,1.6,4.285c3.177,6.609,8.776,11.03,15.287,14.073a1.346,1.346,0,0,0,1.727-.779c1.776-5.821-1.645-11.837-5.746-15.738m-15.928-18.293a36.584,36.584,0,0,1-5.072,5.249,19.957,19.957,0,0,1-11.737,4.879c2.16-5.516,8.171-8.249,13.289-10.556.944-.425,1.889-.857,2.824-1.309-.521.4-1.044.789-1.557,1.2-.735.584-1.495,1.155-2.182,1.8a15.5,15.5,0,0,0-2.156,1.885.166.166,0,0,0,.161.259,11.455,11.455,0,0,0,2.515-1.135,22.677,22.677,0,0,0,2.614-1.464c.478-.3.943-.614,1.406-.939-.035.044-.067.1-.1.14m6.853,19.748a26.359,26.359,0,0,1-1.732-4.31,18.9,18.9,0,0,0,1.2,1.994,24.506,24.506,0,0,0,1.736,2.246,4.194,4.194,0,0,0,2.346,1.513.265.265,0,0,0,.285-.306,5.6,5.6,0,0,0-1.375-2.222,24.447,24.447,0,0,1-1.75-2.144c-.509-.7-.965-1.436-1.437-2.16,1.894,1.421,3.92,2.67,5.771,4.15a21.562,21.562,0,0,1,5.853,6.665,12.878,12.878,0,0,1,1.479,6.483,25.73,25.73,0,0,1-12.374-11.91" transform="translate(109.506 108.743)" fill="#13164b"/><path d="M351.9,416.877c-8.743-7.051-19.3-13.049-30.8-13.4a33.065,33.065,0,0,0-14.174,2.611,28.088,28.088,0,0,0-6.027,3.566c-1.522,1.182-3.592,2.765-3.893,4.766-.3.076-.611.138-.915.219-1.836.483-3.656,1.043-5.446,1.682l-.163.057c.778-1.051,1.523-2.133,2.226-3.237,2.981-4.681,5.663-9.557,9.425-13.679a46.437,46.437,0,0,1,6.27-5.67c9.091,2.874,18.671,5.319,28.207,5.494a49.864,49.864,0,0,0,27.836-7.835,1.3,1.3,0,0,0,.181-1.815c-6.518-7.742-15.358-13.644-25.4-15.5a32.305,32.305,0,0,0-26.262,6.665c-3.453,2.844-7.058,7-7.911,11.558a48.853,48.853,0,0,0-8.553,8.948c-4.026,5.487-7.07,12.107-11.745,17.056a35.326,35.326,0,0,0,4.482-9.078c.341-1.043.623-2.106.873-3.177a13,13,0,0,0,2.163-3.349,33.46,33.46,0,0,0,2.329-5.382,33.029,33.029,0,0,0,1.658-11.451,33.611,33.611,0,0,0-7.863-20.36,1.31,1.31,0,0,0-1.831-.181,30.53,30.53,0,0,0-8.828,22.626,29.741,29.741,0,0,0,2.755,11.223,31.016,31.016,0,0,0,3.051,5.13c.94,1.283,1.884,2.761,3.4,3.285-.1.324-.177.653-.285.974a36.2,36.2,0,0,1-4.74,9.31,31.1,31.1,0,0,1-3.316,4c-.626.631-1.268,1.248-1.85,1.923-.038.043-.058.082-.09.124-7.683,3.021-17.075.994-21.032-6.815-.043-.084-.073-.173-.115-.258a20.458,20.458,0,0,0,5.96,1.2,13.566,13.566,0,0,0,10.252-3.515,11.61,11.61,0,0,0,3.629-9.106,9.506,9.506,0,0,0-7.224-8.01,12.579,12.579,0,0,0-10.307,1.834,14.941,14.941,0,0,0-6.645,12.421c-4.234-2.464-8.236-5.683-12.136-7.753-6.671-3.54-17.578-5.529-22.118,2.377a14.006,14.006,0,0,0-5.578,5.821c-.669,1.256,1.017,2.573,1.865,1.32a19.12,19.12,0,0,1,2.657-3.153,6.279,6.279,0,0,0,3.457,5.481c2.914,1.538,6.947.78,7.788-2.815.792-3.383-2.164-6.763-5.37-7.4-.055-.011-.109-.013-.163-.022a7.982,7.982,0,0,1,1.9-1.113c4.158-1.631,8.886-.433,12.777,1.366,5.392,2.493,10.088,6.574,15.329,9.344a14.761,14.761,0,0,0,1.186,3.288,18.926,18.926,0,0,0,19.043,10.006c6.375-.669,11.439-3.943,15.557-8.341,1.286-.381,2.564-1.02,3.764-1.451q2.777-.994,5.633-1.723c.387-.1.779-.177,1.167-.268a15.883,15.883,0,0,0,2.357,3.67,24.363,24.363,0,0,0,5.672,5.091,30.09,30.09,0,0,0,14.981,4.768c11.331.509,21.934-4.868,31.036-11.094a1.433,1.433,0,0,0-.08-2.256m-40.623-25.1c.718-.464,1.432-.932,2.171-1.356a46.777,46.777,0,0,1,8.492-3.75c.47.764,1.047,1.487,1.549,2.168.819,1.114,1.672,2.2,2.546,3.275q1.635,2,3.407,3.883a145.626,145.626,0,0,1-18.165-4.22m24.391,4.8c-.984-.039-1.962-.109-2.936-.2-1.8-1.735-3.592-3.492-5.265-5.355q-1.384-1.54-2.682-3.153c-.421-.525-.83-1.124-1.267-1.693a85.918,85.918,0,0,1,12.383-2.636,40.044,40.044,0,0,1,5,.424c.363.055.723.125,1.083.19.02.065.038.13.061.194.219.622.464,1.228.731,1.831.533,1.206,1.11,2.391,1.711,3.566.586,1.146,1.218,2.257,1.908,3.345.5.781,1,1.618,1.561,2.384a48.205,48.205,0,0,1-12.289,1.1m8.588-17.525a10.9,10.9,0,0,0,1.546-.2.708.708,0,0,0,.159-.081,44.039,44.039,0,0,1,15.681,11.359,46.358,46.358,0,0,1-11.509,4.81c-.623-.994-1.4-1.919-2.048-2.9-.73-1.1-1.437-2.216-2.11-3.349-.656-1.1-1.251-2.237-1.812-3.387-.065-.132-.186-.436-.34-.781a38.441,38.441,0,0,1,4.091,1.174c1.1.389,2.193.806,3.257,1.291a8.489,8.489,0,0,0,3.236,1.177.449.449,0,0,0,.36-.677c-.552-1.021-1.9-1.633-2.883-2.144a34.571,34.571,0,0,0-3.549-1.615,39.952,39.952,0,0,0-7.225-2.023,37.941,37.941,0,0,0-3.961-.486c.162-.08.324-.162.488-.239a24.853,24.853,0,0,1,5.284-1.719q.664-.134,1.336-.22m-22.96.483c.318-.421.77-.839,1.1-1.3a29.615,29.615,0,0,1,8.975-2.039,31.592,31.592,0,0,1,11.474,1.456c-.066.013-.134.02-.2.034a22.668,22.668,0,0,0-2.889.75,23.156,23.156,0,0,0-2.82,1.166,12.155,12.155,0,0,0-1.252.676,3.514,3.514,0,0,0-1.019.866c-.356,0-.712-.008-1.069,0-.843.024-1.71.071-2.566.16a42.146,42.146,0,0,0-11.922,2.9c.03-.15.059-.3.1-.43a12.919,12.919,0,0,1,.87-2.248,12.275,12.275,0,0,1,1.216-2M310.6,386.89a27.152,27.152,0,0,1,5.62-5.317,28.443,28.443,0,0,1,3.065-1.892c-.25.376-.484.764-.7,1.162a13.757,13.757,0,0,0-.979,2.412,5.439,5.439,0,0,0-.333,1.715c-.3.128-.6.252-.894.386a51.774,51.774,0,0,0-7.567,4.233,23.714,23.714,0,0,1,1.785-2.7m-18.154-3.845c.29-.314.549-.653.811-.989a28.769,28.769,0,0,1,.414,4.189,30.137,30.137,0,0,1-.658,6.738l-.051.045c-.146.121-.193.159-.38.3q-.243.19-.493.372c-.332.245-.676.471-1.016.7l-.221.152c-.113-1.263-.264-2.523-.426-3.783-.157-1.221-.32-2.441-.455-3.662-.067-.615-.155-1.228-.239-1.842a3.117,3.117,0,0,0,1.38-.895c.466-.424.908-.872,1.334-1.336m-5.131-14.616A31.281,31.281,0,0,1,292.834,380c-.147.242-.285.487-.433.7-.32.459-.66.909-1.012,1.347-.367.456-.76.893-1.168,1.313-.19.194-.449.414-.669.657-.12-.752-.244-1.5-.4-2.247a26.655,26.655,0,0,0-1.487-5.421c-.283-.633-1.476-.619-1.341.227.188,1.176.474,2.338.742,3.5-.243-.139-.487-.275-.72-.417-.6-.358-1.186-.722-1.777-1.083l-1.777-1.086c-.193-.119-.424-.266-.663-.4a28.262,28.262,0,0,1,5.187-8.662m-6.966,18.554a27.05,27.05,0,0,1,1.3-8.518c.112.071.224.142.328.209l1.753,1.132c.584.376,1.168.751,1.751,1.132a14.329,14.329,0,0,0,1.757,1.121.737.737,0,0,0,.239.058,47.169,47.169,0,0,1,.6,5.076c.092,1.576.189,3.171.262,4.775a12.844,12.844,0,0,1-4.135-1.741,12.076,12.076,0,0,1-1.925-1.57,6.491,6.491,0,0,0-1.892-1.669c-.012,0-.022,0-.034-.005m5.427,16.219a27.5,27.5,0,0,1-2.709-4.567,28.591,28.591,0,0,1-2.635-9.746,9.257,9.257,0,0,0,.645.78,13.87,13.87,0,0,0,7.326,4.063,46.141,46.141,0,0,1-.861,11.666c-.514-.766-1.209-1.437-1.766-2.2m5.195-6.9a2.482,2.482,0,0,0,1.013-.417c.121-.074.233-.162.352-.243-.112.366-.2.737-.325,1.1-.3.859-.627,1.708-.994,2.539.036-1,.007-1.987-.046-2.976m-68,12.756c1.117.907,2.2,2.705,1.182,4.067-.934,1.251-2.781.822-3.9.088-2.036-1.337-2-3.23-1.058-4.937a3.97,3.97,0,0,1,3.774.783m31.44,4.355a11.594,11.594,0,0,1,9.955-13.278c4.177-.3,8.522,2.6,7.959,7.133a9.187,9.187,0,0,1-6.951,7.53,16.423,16.423,0,0,1-10.963-1.386M320.09,406.3c.518,0,1.035.011,1.549.038a38.506,38.506,0,0,1,13.165,3.21l-.506.147a33.018,33.018,0,0,0-3.358,1.166,30.166,30.166,0,0,0-3.155,1.49,12.508,12.508,0,0,0-2.349,1.477,47.615,47.615,0,0,0-4.949-.845,63.822,63.822,0,0,0-11.122-.368c.955-.8,1.908-1.588,2.936-2.3a33.07,33.07,0,0,1,6.691-3.607c.227-.089.669-.223,1.1-.41m-17.874,5.772a24.993,24.993,0,0,1,5.871-3.427,29.994,29.994,0,0,1,6.873-1.946,29.2,29.2,0,0,0-3.037,1.858,33.665,33.665,0,0,0-3.268,2.616,10.233,10.233,0,0,0-1.554,1.606,65.483,65.483,0,0,0-6.623.893c.571-.542,1.128-1.116,1.739-1.6m6.284,11.618a22.4,22.4,0,0,1-5.336-4.341,22.984,22.984,0,0,1-2.23-3.273,65.21,65.21,0,0,1,7.271-.931c1.534-.105,3.074-.14,4.614-.127a17.217,17.217,0,0,0,1.3,3.3,30.2,30.2,0,0,0,2.349,4.157,27.744,27.744,0,0,0,4.164,4.878,27.282,27.282,0,0,1-12.127-3.663m15.844,3.67a1.224,1.224,0,0,0-.509-.17,29.1,29.1,0,0,1-5.9-5.776,26.672,26.672,0,0,1-2.327-3.7c-.437-.835-.76-1.769-1.146-2.654,1.364.046,2.728.123,4.087.25a5.789,5.789,0,0,0,1.038.215c.963.1,1.927.184,2.889.3.382.046.76.111,1.14.162,1.32.223,2.635.449,3.959.633.317.058.637.108.954.169q1.249.235,2.493.487a5.789,5.789,0,0,0,.706,1.747,15.653,15.653,0,0,0,4.917,5.408,38.946,38.946,0,0,1-12.3,2.936m13.886-3.62a1.063,1.063,0,0,0-.406-.521,15.625,15.625,0,0,1-3.391-3.029,14.31,14.31,0,0,1-1.274-1.881c-.115-.2-.223-.424-.333-.648.514.113,1.028.219,1.539.344s4.191,1.471,4.33.455c.082-.6-.664-.926-1.117-1.1-.932-.364-1.9-.667-2.851-.966a59.207,59.207,0,0,0-6.084-1.611l-.053-.009c-.433-.169-.877-.3-1.318-.44.382-.223.76-.451,1.133-.642,1-.51,2.017-.985,3.057-1.4q1.53-.611,3.115-1.071c.557-.16,1.121-.286,1.68-.437a1.542,1.542,0,0,0,.576-.3,67.6,67.6,0,0,1,11.844,7.476,72.515,72.515,0,0,1-10.449,5.791" transform="translate(73.759 127.509)" fill="#13164b"/><path d="M228.135,399.213a1.872,1.872,0,0,0,.084-.955c-.047-.154-.093-.306-.14-.459a1.877,1.877,0,0,0-.626-.757,2.1,2.1,0,0,0-1.4-.317,1.386,1.386,0,0,0-.665.27,1.422,1.422,0,0,0-.551.5c-.077.148-.155.3-.233.447a1.887,1.887,0,0,0-.084.955l.142.459a1.873,1.873,0,0,0,.625.757,1.932,1.932,0,0,0,2.618-.449c.078-.148.155-.3.233-.447" transform="translate(78.404 138.545)" fill="#13164b"/><path d="M233.051,401.932a2.171,2.171,0,0,0,.1-1.113c-.054-.178-.109-.356-.163-.536a2.175,2.175,0,0,0-.73-.881,2.251,2.251,0,0,0-3.049.524l-.271.521a2.186,2.186,0,0,0-.1,1.113c.055.178.109.356.165.534a2.187,2.187,0,0,0,.729.882,2.246,2.246,0,0,0,3.049-.525c.092-.173.182-.347.273-.519" transform="translate(79.911 139.349)" fill="#13164b"/><path d="M236.519,403.908a.823.823,0,0,0,.036-.42.831.831,0,0,0-.07-.413,1.248,1.248,0,0,0-.287-.565c-.109-.1-.217-.2-.325-.3l-.391-.205a1.246,1.246,0,0,0-.629-.084.832.832,0,0,0-.413.072.823.823,0,0,0-.383.175,1.229,1.229,0,0,0-.483.436c-.069.131-.138.262-.205.393-.031.139-.062.279-.092.418.005.14.011.281.018.421a1.83,1.83,0,0,0,.673,1.069l.008.005.39.2a1.243,1.243,0,0,0,.625.082.838.838,0,0,0,.41-.07,1.246,1.246,0,0,0,.561-.286l.005-.005c.1-.108.2-.216.3-.325a1.234,1.234,0,0,0,.251-.6" transform="translate(81.472 140.368)" fill="#13164b"/><path d="M312.731,369.6c.019-.206.036-.413.057-.621l0-.038a2.389,2.389,0,0,0-.351-1.15,1.767,1.767,0,0,0-.645-.662,1.8,1.8,0,0,0-.854-.408,2.369,2.369,0,0,0-1.209.047l-.034.007a1.622,1.622,0,0,0-.567.255q-.241.2-.483.391a3.4,3.4,0,0,0-.416.577l-.093.136a2.672,2.672,0,0,0-.177,1.824q.125.279.252.557a1.755,1.755,0,0,0,.652.669,1.2,1.2,0,0,0,.561.3,1.774,1.774,0,0,0,.919.167l.6-.1a2.391,2.391,0,0,0,1.039-.642c.035-.043.071-.085.107-.128l.02-.026a2.491,2.491,0,0,0,.2-.274,1.211,1.211,0,0,0,.192-.27,2.625,2.625,0,0,0,.228-.611" transform="translate(107.519 128.059)" fill="#13164b"/><path d="M312.239,363.012a2.22,2.22,0,0,0-.2-.795l-.03-.066a1.427,1.427,0,0,0-.154-.312.263.263,0,0,1-.026-.042,2.426,2.426,0,0,0-.4-.507,2.387,2.387,0,0,0-1.108-.59,2.355,2.355,0,0,0-1.2.046,2.624,2.624,0,0,0-1.4,1.15,2.347,2.347,0,0,0-.277,1.2,2.377,2.377,0,0,0,.349,1.146,2.348,2.348,0,0,0,.9.845,2.643,2.643,0,0,0,1.3.294,2.028,2.028,0,0,0,.6-.1l.534-.241q.239-.178.464-.376l.005-.005a2.639,2.639,0,0,0,.371-.514,2.207,2.207,0,0,0,.259-1.132" transform="translate(107.375 125.955)" fill="#13164b"/><path d="M314.03,357.472a2.355,2.355,0,0,0-.046-1.2q-.125-.275-.248-.551a2.354,2.354,0,0,0-.9-.845,2.622,2.622,0,0,0-1.8-.174,2.628,2.628,0,0,0-1.4,1.148l-.221.594a2.355,2.355,0,0,0,.047,1.2q.123.275.248.55a2.335,2.335,0,0,0,.9.845,2.428,2.428,0,0,0,3.194-.974c.073-.2.146-.4.22-.594" transform="translate(108.046 123.844)" fill="#13164b"/><path d="M405.329,250.363a1.97,1.97,0,0,0-.039-1.009l-.207-.46a1.978,1.978,0,0,0-.754-.707,2.032,2.032,0,0,0-2.674.815c-.061.166-.123.332-.183.5a1.969,1.969,0,0,0,.038,1.009c.069.154.139.308.208.461a1.968,1.968,0,0,0,.754.707,2.03,2.03,0,0,0,2.673-.816c.062-.165.123-.331.185-.5" transform="translate(140.198 86.599)" fill="#13164b"/><path d="M428.872,215.129a1.3,1.3,0,0,0,.152-.665,1.96,1.96,0,0,0-.081-1c-.005-.024-.009-.047-.013-.071l-.005-.032a.724.724,0,0,0-.142-.317,1.312,1.312,0,0,0-.358-.577c-.076-.094-.151-.188-.228-.281l-.579-.417-.668-.248-.012,0-.054-.012-.209-.047a2.665,2.665,0,0,0-1.78.3l-.482.391a2.412,2.412,0,0,0-.6,1.124c-.009.067-.02.136-.031.205,0,.015,0,.031-.007.046a3.111,3.111,0,0,0-.032.355,1.327,1.327,0,0,0,.026.677,1.347,1.347,0,0,0,.2.645,2.035,2.035,0,0,0,.144.317,1.985,1.985,0,0,0,.438.542l.579.417.026.015.064.04.657.243c.224.022.449.041.673.061l.659-.112a1.96,1.96,0,0,0,.872-.487,1.294,1.294,0,0,0,.467-.5,1.322,1.322,0,0,0,.326-.613" transform="translate(147.983 73.831)" fill="#13164b"/><path d="M436.856,261.867a2.929,2.929,0,0,0-.43-1.413l-.022-.039-.009-.019-.008-.014-.484-.6a3,3,0,0,0-1.4-.742,2.964,2.964,0,0,0-1.517.059.316.316,0,0,1-.038.011c-.046.015-.093.028-.14.042a3.1,3.1,0,0,0-1.638,1.348l-.259.7a2.782,2.782,0,0,0,.054,1.415l.045.139.011.034a2.139,2.139,0,0,0,.556,1,1.322,1.322,0,0,0,.248.3,2.237,2.237,0,0,0,1.019.6,2.031,2.031,0,0,0,1.148.206l.022,0,.047,0a2.913,2.913,0,0,0,2.794-3.025" transform="translate(150.474 90.446)" fill="#13164b"/><path d="M281.228,380.449a1.42,1.42,0,0,0-.108-.622,2.438,2.438,0,0,0-4.1-.966,1.65,1.65,0,0,0-.387.537,2.436,2.436,0,0,0-.286,1.244l0,.027,0,.026a2.454,2.454,0,0,0,.36,1.185l.4.486a1.827,1.827,0,0,0,.828.49,1.2,1.2,0,0,0,.614.14,1.8,1.8,0,0,0,.92-.076,2.354,2.354,0,0,0,1.077-.677,3.623,3.623,0,0,0,.4-.548,2.441,2.441,0,0,0,.285-1.245" transform="translate(96.514 132.052)" fill="#13164b"/><path d="M310.152,395.426a1.841,1.841,0,0,0-.035-.934c-.065-.142-.13-.285-.193-.426a1.807,1.807,0,0,0-.7-.654,1.879,1.879,0,0,0-2.474.754c-.057.154-.115.308-.171.46a1.826,1.826,0,0,0,.036.934l.192.426a1.827,1.827,0,0,0,.7.654,1.381,1.381,0,0,0,.7.193,1.4,1.4,0,0,0,.7-.057,2.034,2.034,0,0,0,1.081-.89c.058-.154.115-.306.171-.46" transform="translate(107.059 137.325)" fill="#13164b"/><path d="M270.526,410.723c.05-.136.1-.271.151-.408.013-.14.026-.281.038-.42l-.069-.41a1.218,1.218,0,0,0-.3-.541,1.623,1.623,0,0,0-1.1-.588,1.227,1.227,0,0,0-.619.051l-.159.034a1.7,1.7,0,0,0-1.131,2.125,1.892,1.892,0,0,0,.829,1.005,1.683,1.683,0,0,0,.866.2,1.7,1.7,0,0,0,1.436-.9c.022-.05.044-.1.066-.147" transform="translate(93.339 142.612)" fill="#13164b"/><path d="M1.991,178.073A124.589,124.589,0,0,0,46.439,141.1c2.958-4,6.162-8.288,8.225-12.869,1.471-.986,2.958-1.944,4.477-2.847.714-.422,1.442-.819,2.162-1.229A100.362,100.362,0,0,0,40.95,154.481c-5.334,4.064-8.915,10.512-11.747,16.469a69.381,69.381,0,0,0-6.1,20.667,68.2,68.2,0,0,0,6.088,37.88A73.105,73.105,0,0,0,41.1,247.058a1.318,1.318,0,0,0,2.234-.359,112.881,112.881,0,0,0,5.841-36.9,119.383,119.383,0,0,0-1.545-18.425c-1.054-6.424-2.773-12.722-3.768-19.154a48.088,48.088,0,0,1,.969-19.953,98.462,98.462,0,0,1,38.365-41.7c1.85-1.093,3.737-2.106,5.655-3.061q-1.346,1.291-2.643,2.63-1.137,1.172-2.236,2.376c-2.357.152-4.03,1.695-5.875,3.165a68.952,68.952,0,0,0-5.993,5.389,69.531,69.531,0,0,0-20.14,43.909,71.446,71.446,0,0,0,1.055,18.759,1.47,1.47,0,0,0,2.6.614,135.025,135.025,0,0,0,20.719-33.5,136.026,136.026,0,0,0,6.549-18.8c.858-3.236,1.606-6.5,2.309-9.771a61.259,61.259,0,0,0,1.654-9.253c.363-.413.719-.831,1.089-1.239,1.615-1.774,3.312-3.465,5.026-5.143.617-.606,1.338-1.235,2-1.912,3.62-1.481,7.345-2.7,10.933-4.257,6.641-2.882,13.09-8.353,12.584-16.3-.5-7.805-9.756-12.128-15.95-7.147a9.244,9.244,0,0,0-3.025,10.333,6.7,6.7,0,0,0,9.268,3.849c3.276-1.6,4.95-6.974,1.016-8.95-3.238-1.626-6.71,2.873-3.615,5.162,1.266.935,3.037-.824,1.938-2.035-.027-.03.02-.131.112-.225.255-.262.556.82.561.845a1.946,1.946,0,0,1-.617,1.677,3.44,3.44,0,0,1-4.107.468c-2.881-1.866-2-6.236.154-8.241a6.6,6.6,0,0,1,8.919-.053c2.309,2.1,2.507,5.458,1.561,8.266-2.232,6.622-9.24,9.167-15.232,11.374A104.532,104.532,0,0,0,81,108.4a101.207,101.207,0,0,0-14.428,10.723,14.566,14.566,0,0,0-3.163,1.247c-1.906.843-3.766,1.789-5.594,2.792q-3.169,1.741-6.22,3.683c-3.928-.571-8.2.644-11.853,1.95a46.22,46.22,0,0,0-11.859,6.459c-8.36,6.194-14.492,14.77-19.425,23.826C5.4,164.687,2.744,170.492.108,176.3a1.413,1.413,0,0,0,1.884,1.77m28.4-3.055a66.18,66.18,0,0,1,5.572-10.565c.826-1.271,1.7-2.495,2.582-3.714a94.628,94.628,0,0,0-3.523,12.884,4.727,4.727,0,0,0-.858.32c-.449.228-.888.5-1.313.766-.877.56-1.724,1.171-2.545,1.812-.259.2-.5.432-.75.641.27-.716.538-1.436.834-2.144m-4.873,24.127c-.04.058-.088.12-.13.178A66.309,66.309,0,0,1,28.3,180.8c.335-.282.635-.63.873-.859q1.065-1.022,2.206-1.958,1.111-.9,2.291-1.714c.331-.225.658-.452.988-.677a108.675,108.675,0,0,0-1.62,15.067,10.939,10.939,0,0,0-2.048,1.855c-.99,1.029-1.947,2.091-2.859,3.192s-1.795,2.253-2.614,3.437m-.07,3.936c.219-.343.422-.7.634-1.031q.542-.85,1.114-1.68c.789-1.144,1.614-2.267,2.48-3.354q1.255-1.577,2.623-3.057c.231-.25.453-.507.68-.761-.018,1.612-.008,3.223.053,4.834a101.72,101.72,0,0,0,1.1,12.3c-.112.3-.205.613-.309.907q-.376,1.058-.754,2.117-.725,2.034-1.436,4.075c-.711,2.043-1.438,4.081-2.139,6.128a67.2,67.2,0,0,1-4.05-20.482m19.825,21.387a128.824,128.824,0,0,1-3.791,19.174,62.241,62.241,0,0,1-11.224-18.123c1.012-2.546,1.943-5.127,2.91-7.691q.793-2.1,1.569-4.21l.012-.03a46.2,46.2,0,0,0,2.533,8.252.518.518,0,0,0,.978-.3c-.672-4.355-1.711-8.639-2.313-13.008-.1-.735-.183-1.473-.268-2.211l1.495,1.491c1.038,1.035,2.071,2.072,3.119,3.1s2.091,2.054,3.151,3.068a22.51,22.51,0,0,0,2.481,2.333c-.125,2.72-.329,5.44-.652,8.158M46,214.336c-.5-.544-1.017-1.077-1.53-1.611-1.012-1.055-2.033-2.1-3.051-3.149s-2.054-2.085-3.083-3.124a29.7,29.7,0,0,0-2.945-2.925c-.237-2.734-.378-5.474-.39-8.217a97.163,97.163,0,0,1,.708-12.03c.557.451,1.114.9,1.65,1.378a34.911,34.911,0,0,1,3.2,3.256,39.281,39.281,0,0,1,2.739,3.461c.517.754,1,1.534,1.487,2.31A119.54,119.54,0,0,1,46,214.336m-2.45-27.755c.223,1.089.428,2.179.622,3.272a32.752,32.752,0,0,0-2.306-3.161,39.217,39.217,0,0,0-3.214-3.365q-.856-.8-1.761-1.542a2.164,2.164,0,0,0-.915-.559,96.927,96.927,0,0,1,2.472-11.964c.39.564.777,1.129,1.194,1.673.44.573.891,1.141,1.343,1.705.6,4.685,1.619,9.313,2.565,13.94m-3.04-19.313c.027.645.074,1.287.123,1.929-.27-.424-.537-.85-.815-1.268-.215-.32-.428-.641-.641-.961-.013-.02-.027-.038-.039-.058.433-1.438.888-2.868,1.383-4.281-.081,1.558-.074,3.115-.011,4.639M78.054,119.64c-.246.325-.5.642-.739.971-1.523,2.079-2.948,4.222-4.295,6.412a5.837,5.837,0,0,0-.8.08,13.611,13.611,0,0,0-2.012.526l-.02.008c.781-.949,1.583-1.882,2.419-2.79a65.536,65.536,0,0,1,5.448-5.207M67.881,130.617a2.33,2.33,0,0,0,.519-.281l.074-.046.169-.1.051-.031q.2-.117.4-.227a12,12,0,0,1,1.7-.77,9.985,9.985,0,0,1,1.14-.333c-.671,1.147-1.326,2.3-1.951,3.478-.171.325-.344.652-.515.978-.085.059-.171.115-.256.175q-1.558,1.119-3.1,2.255l-2.843,2.1a67.684,67.684,0,0,1,4.613-7.194M57.524,151.522a68.277,68.277,0,0,1,3.574-9.407c.036-.028.082-.046.1-.092.059-.167.125-.317.188-.471a33.7,33.7,0,0,0,2.836-2.087q1.475-1.115,2.954-2.229c.171-.13.34-.262.51-.391-.248.54-.486,1.082-.708,1.629a23.17,23.17,0,0,0-1.322,4.991c-.609,1.411-1.183,2.836-1.743,4.266a6.673,6.673,0,0,0-1.627.843c-.792.48-1.588.958-2.373,1.45L57.6,151.476l-.073.046m-2.152,28.529a67.665,67.665,0,0,1,1.419-25.926,5.152,5.152,0,0,0,.671-.39c.385-.244.764-.494,1.146-.741l2.29-1.479c.715-.461,1.421-.936,2.128-1.41-.4,1.1-.816,2.2-1.185,3.307-.5,1.51-.976,3.026-1.406,4.558a15.916,15.916,0,0,0-.939,4.671c.015.4.54.719.812.306a21.709,21.709,0,0,0,1.92-4.844q.5-1.419,1.007-2.833c.121.38.248.76.358,1.131.294,1,.6,2,.908,2.993.3.98.588,1.965.9,2.94.157.486.3.982.483,1.457a2.15,2.15,0,0,0,.316.6,138.638,138.638,0,0,1-10.828,15.662m11.807-17.338c-.07-.286-.134-.573-.2-.858-.248-.994-.521-1.985-.783-2.978s-.519-1.986-.792-2.975a19.279,19.279,0,0,0-.895-3,.9.9,0,0,0-.256-.324c1.271-3.246,2.574-6.471,4.03-9.639.479-1.044.993-2.072,1.5-3.1,0,.028,0,.055.007.082a30.352,30.352,0,0,0,.793,4.208,34.352,34.352,0,0,0,1.284,3.968,21.18,21.18,0,0,0,1.337,2.9q-2.728,6-6.019,11.72m6.845-13.563c-.221-.538-.445-1.077-.635-1.624a32.04,32.04,0,0,1-1.085-3.914,36.421,36.421,0,0,1-.588-3.909c-.067-.68-.116-1.363-.135-2.045a10.534,10.534,0,0,0-.04-1.318c.548-1.052,1.09-2.109,1.664-3.149.857-1.55,1.867-3.067,2.734-4.641a34.125,34.125,0,0,0,1.123,3.67q.524,1.439,1.167,2.831c.188.406.374.823.583,1.225a130.972,130.972,0,0,1-4.786,12.876m6.232-17.726c-.231.827-.486,1.647-.73,2.47-.269-.757-.528-1.517-.741-2.29-.528-1.925-.81-3.882-1.2-5.833a1.1,1.1,0,0,0-.142-.351c.7-1.065,1.4-2.124,2.13-3.161q2.03-2.882,4.245-5.633c-.331,1.475-.614,2.962-.942,4.4-.793,3.484-1.657,6.95-2.619,10.393m-49.573,23.3q-4.341,4.088-9.056,7.738c.134-.332.267-.664.4-.992.407-.981.826-1.958,1.216-2.945q.625-1.587,1.252-3.175a5.192,5.192,0,0,0,.524-1.79c1.754-1.844,3.553-3.647,5.346-5.455.318-.322.645-.638.966-.959a20.638,20.638,0,0,0,2.1-1.256q-.362,1.346-.726,2.693-.478,1.767-.932,3.538c-.174.681-.371,1.371-.534,2.066-.186.177-.366.362-.553.538m12.486-13.467a136.266,136.266,0,0,1-9.546,10.6q.445-1.459.877-2.921.518-1.751,1.034-3.5c.189-.641.4-1.287.6-1.936,1.16-1.178,2.332-2.345,3.543-3.472s2.47-2.215,3.733-3.292c0,.174-.009.348-.013.524-.019.766-.028,1.533-.042,2.3-.007.383-.023.768-.013,1.151,0,.108,0,.216,0,.324-.058.073-.113.148-.173.221m5.892-9.052c.465-.345.938-.684,1.406-1.027-.661,1.032-1.324,2.063-2.023,3.064-1.093,1.565-2.234,3.094-3.4,4.606.027-.475.055-.95.08-1.426q.053-1.1.1-2.2c1.26-1.028,2.526-2.05,3.832-3.02m-4.745-1.781c.917-.223,1.846-.371,2.775-.5-.569.418-1.114.868-1.674,1.3-.1-.015-.194-.036-.293-.047-.48-.055-.957-.1-1.438-.13-.452-.027-.9-.055-1.353-.069q.982-.3,1.983-.548m-7.727,2.855c1.123-.553,2.273-1.051,3.442-1.5a1.561,1.561,0,0,1,.38.169,1.229,1.229,0,0,0,.484.169,2.634,2.634,0,0,0,1.22.217c.482.027.963.035,1.446.046.12,0,.239,0,.359,0-1.8,1.429-3.566,2.9-5.263,4.443-.561.026-1.121.072-1.672.107-1.2.074-2.41.162-3.613.248-1.183.088-2.371.162-3.557.251a45.354,45.354,0,0,1,6.773-4.146m-13.3,9.814c1.1-1.12,2.252-2.18,3.443-3.2,2.326-.186,4.647-.523,6.961-.823q1.5-.192,3-.4c-1.079,1.036-2.144,2.09-3.18,3.171-.108.112-.19.227-.29.339-1.472,1.422-2.932,2.855-4.362,4.319-.623.64-1.224,1.3-1.832,1.955a38.135,38.135,0,0,0-4.937.908q-2.465.522-4.926,1.056a63.948,63.948,0,0,1,6.128-7.322m-7.579,9.4a.823.823,0,0,0,.256-.005q3.2-.72,6.4-1.454c.94-.216,1.906-.41,2.859-.642q-1.257,1.394-2.506,2.8c-1.028,1.158-2.045,2.326-3.036,3.518a11.95,11.95,0,0,0-2.508,3.65.451.451,0,0,0,.6.563A12.7,12.7,0,0,0,20.9,158c.354-.382.7-.766,1.056-1.151l-.39,1.036c-.374.993-.719,2-1.074,3a25.929,25.929,0,0,0-1.048,3.2c0,.005,0,.011,0,.016a123.988,123.988,0,0,1-15.066,9.582,148.444,148.444,0,0,1,11.331-21.193" transform="translate(0 26.159)" fill="#13164b"/><path d="M71.208,89.615a2.774,2.774,0,0,0-.08.393,3.974,3.974,0,0,0,.016.646,3.232,3.232,0,0,0,.2.78,4.185,4.185,0,0,0,.613,1,3.438,3.438,0,0,0,.611.541,5.453,5.453,0,0,0,.573.309,1.035,1.035,0,0,0,.167.062,4.032,4.032,0,0,0,.634.143,3.677,3.677,0,0,0,.648-.009,2.8,2.8,0,0,0,.764-.193,3.09,3.09,0,0,0,1.235-.927,1.618,1.618,0,0,0,.2-.271,3.877,3.877,0,0,0,.359-.718,3.768,3.768,0,0,0,.174-.78,1.364,1.364,0,0,0,.005-.166,4.633,4.633,0,0,0-.028-.611,1.309,1.309,0,0,0-.035-.161,4.386,4.386,0,0,0-.182-.576,2.813,2.813,0,0,0-.193-.333,2.6,2.6,0,0,0-.219-.331,2.563,2.563,0,0,0-.185-.178A.874.874,0,0,0,76.3,88a1.326,1.326,0,0,0-.206-.189,5.082,5.082,0,0,0-.565-.306,3.318,3.318,0,0,0-.789-.212,3.283,3.283,0,0,0-.806-.008,1.621,1.621,0,0,0-.349.051,3.562,3.562,0,0,0-.768.263,3.2,3.2,0,0,0-.664.436,5.493,5.493,0,0,0-.424.445,1.212,1.212,0,0,0-.108.154,4.546,4.546,0,0,0-.3.561,2.626,2.626,0,0,0-.112.416" transform="translate(24.839 30.478)" fill="#13164b"/><path d="M64.831,93.282a1.628,1.628,0,0,0-.046.855c.055.179.109.359.165.538a2.194,2.194,0,0,0,.706.87,1.5,1.5,0,0,0,.637.337,2.281,2.281,0,0,0,2.685-.768,2.1,2.1,0,0,0,.061-2.724,2.108,2.108,0,0,0-.488-.429l-.065-.062a1.75,1.75,0,0,0-.842-.363,2.07,2.07,0,0,0-1.561.213l.086-.07c-.074.035-.136.085-.208.124-.007.005-.016.005-.023.011s-.03.023-.047.032a2.19,2.19,0,0,0-.712.629,1.663,1.663,0,0,0-.347.805" transform="translate(22.614 31.943)" fill="#13164b"/><path d="M58.485,97.771a.823.823,0,0,0-.042.424,1.225,1.225,0,0,0,.13.607c.073.119.146.236.217.355l.3.29a1.247,1.247,0,0,0,.6.256,1.213,1.213,0,0,0,.633.034l.086-.016c.134-.042.269-.082.4-.123a1.234,1.234,0,0,0,.506-.375.81.81,0,0,0,.252-.351,1.249,1.249,0,0,0,.205-.622c-.016-.468.02-.306-.078-.629a.815.815,0,0,0-.17-.379,1.235,1.235,0,0,0-.418-.472l0,0-.387-.209a1.232,1.232,0,0,0-.644-.092.807.807,0,0,0-.414.069,1.245,1.245,0,0,0-.561.282l-.067.053-.291.3a1.229,1.229,0,0,0-.256.6" transform="translate(20.408 33.687)" fill="#13164b"/><path d="M95.24,77.19a59,59,0,0,0,7.278,5.548,20.2,20.2,0,0,1,3.373,2.738c.486.523.859,1.22,1.314,1.8.005.4,0,.789-.008,1.183a42,42,0,0,1-6.227,16.929A43.652,43.652,0,0,1,80.216,122c-2.012.772-4.064,1.4-6.077,2.175-.6.231-.463,1.294.213,1.278,6.822-.162,13.611-3.933,18.884-8.052a45.53,45.53,0,0,0,10.554-11.713c.6-.617,1.117-1.34,1.727-1.936a21.673,21.673,0,0,1,3.518-2.717,76.861,76.861,0,0,1,8.931-4.412c5.344-2.5,10.616-5.946,12.346-11.921a1.022,1.022,0,0,0-.849-1.36c-8.73-.76-15.762,5.143-20.824,11.609-.049.062-.094.128-.143.19,3.856-13.847.413-29,5.753-42.6,2.855-7.277,8.351-13.1,16.319-14.3A17.786,17.786,0,0,1,148.815,46.5a16.382,16.382,0,0,1-1.422,19.216c-4.563,5.273-12.961,7.715-19.006,3.416-3.724-2.649-4.655-7.424-3.167-11.6,1.3-3.648,4.868-7.391,9.094-6.56,3.021.594,6.024,3.172,4.853,6.489a4.24,4.24,0,0,1-2.673,2.759,2.44,2.44,0,0,1-2.3-.478c-.225-.258-.367-1.055-.189-1.061a2.248,2.248,0,0,0,2.367-1.963,2.186,2.186,0,0,0-1.965-2.367,4.918,4.918,0,0,0-2.967,8.754c3.2,2.744,7.826,1.61,10.335-1.441A8.712,8.712,0,0,0,142.2,51.02a10.443,10.443,0,0,0-10.772-3.663c-8.715,2.07-13,13.739-8.152,21.112,5.021,7.639,15.92,7.437,22.82,2.751a19.191,19.191,0,0,0,7.492-21.712A20.633,20.633,0,0,0,134.8,35c-9.085-.39-17,4.822-21.264,12.676-4.875,8.973-5.014,19.309-5.343,29.249q-.036,1.058-.086,2.112a26.934,26.934,0,0,0-1.6-4.285c-3.177-6.609-8.776-11.03-15.287-14.073a1.346,1.346,0,0,0-1.727.779C87.72,67.273,91.139,73.29,95.24,77.19m15.928,18.293a36.585,36.585,0,0,1,5.072-5.249,19.957,19.957,0,0,1,11.737-4.879c-2.16,5.516-8.171,8.251-13.289,10.557-.943.425-1.889.857-2.824,1.309.521-.4,1.044-.789,1.557-1.2.737-.584,1.495-1.155,2.182-1.8a15.506,15.506,0,0,0,2.156-1.885.166.166,0,0,0-.161-.259,11.452,11.452,0,0,0-2.515,1.135,22.545,22.545,0,0,0-2.612,1.464c-.479.3-.944.614-1.407.939.035-.045.067-.1.1-.14m-6.853-19.748a26.327,26.327,0,0,1,1.732,4.311,18.993,18.993,0,0,0-1.2-2,24.509,24.509,0,0,0-1.738-2.247,4.186,4.186,0,0,0-2.346-1.513.265.265,0,0,0-.285.306,5.6,5.6,0,0,0,1.375,2.222,24.45,24.45,0,0,1,1.75,2.144c.509.7.963,1.436,1.437,2.16-1.894-1.421-3.92-2.67-5.771-4.15a21.563,21.563,0,0,1-5.853-6.665,12.877,12.877,0,0,1-1.479-6.483,25.73,25.73,0,0,1,12.374,11.91" transform="translate(25.761 12.214)" fill="#13164b"/><path d="M135.028,13.383c8.743,7.051,19.3,13.049,30.8,13.4A33.07,33.07,0,0,0,180,24.169a28.12,28.12,0,0,0,6.027-3.566c1.521-1.182,3.592-2.765,3.893-4.766.3-.076.611-.138.915-.219,1.836-.483,3.656-1.043,5.446-1.683l.163-.057c-.779,1.051-1.523,2.133-2.226,3.237-2.98,4.681-5.663,9.557-9.425,13.679a46.433,46.433,0,0,1-6.27,5.67c-9.091-2.874-18.671-5.319-28.207-5.494a49.864,49.864,0,0,0-27.836,7.835,1.3,1.3,0,0,0-.181,1.815c6.518,7.742,15.359,13.644,25.405,15.5a32.306,32.306,0,0,0,26.262-6.665c3.451-2.843,7.058-7,7.911-11.559a48.8,48.8,0,0,0,8.553-8.947c4.026-5.487,7.07-12.107,11.744-17.056a35.365,35.365,0,0,0-4.481,9.078c-.341,1.043-.625,2.106-.873,3.177a13.014,13.014,0,0,0-2.164,3.349,33.693,33.693,0,0,0-2.329,5.382,33.058,33.058,0,0,0-1.657,11.451,33.611,33.611,0,0,0,7.863,20.36,1.312,1.312,0,0,0,1.831.182,30.535,30.535,0,0,0,8.828-22.627,29.765,29.765,0,0,0-2.755-11.223,31.018,31.018,0,0,0-3.051-5.13c-.94-1.283-1.884-2.759-3.4-3.285.1-.324.178-.653.285-.974a36.252,36.252,0,0,1,4.741-9.31,31,31,0,0,1,3.316-4c.626-.631,1.268-1.248,1.85-1.923.038-.043.058-.082.09-.124,7.683-3.021,17.073-.994,21.032,6.815.043.084.073.173.113.258a20.484,20.484,0,0,0-5.958-1.2A13.566,13.566,0,0,0,215.2,15.662a11.61,11.61,0,0,0-3.63,9.106,9.5,9.5,0,0,0,7.224,8.011A12.585,12.585,0,0,0,229.1,30.945a14.94,14.94,0,0,0,6.645-12.423c4.234,2.465,8.236,5.684,12.137,7.754,6.671,3.54,17.578,5.529,22.117-2.377a14.009,14.009,0,0,0,5.579-5.821c.669-1.256-1.017-2.573-1.865-1.32a19.19,19.19,0,0,1-2.657,3.153,6.278,6.278,0,0,0-3.458-5.481c-2.914-1.538-6.946-.78-7.786,2.815-.792,3.383,2.164,6.762,5.37,7.4.054.011.108.013.163.022a8.005,8.005,0,0,1-1.9,1.113c-4.158,1.631-8.886.433-12.777-1.365-5.392-2.493-10.088-6.574-15.329-9.344a14.76,14.76,0,0,0-1.186-3.288A18.926,18.926,0,0,0,215.116,1.78c-6.375.669-11.44,3.943-15.557,8.341-1.286.38-2.564,1.02-3.764,1.45q-2.777.994-5.633,1.723c-.387.1-.779.177-1.167.267a15.9,15.9,0,0,0-2.357-3.669A24.363,24.363,0,0,0,180.965,4.8,30.094,30.094,0,0,0,165.984.034C154.653-.475,144.049,4.9,134.949,11.127a1.433,1.433,0,0,0,.08,2.256m40.623,25.1c-.718.464-1.432.932-2.171,1.356a46.778,46.778,0,0,1-8.492,3.75c-.47-.764-1.047-1.487-1.549-2.168q-1.23-1.672-2.546-3.275-1.635-2-3.407-3.883a145.631,145.631,0,0,1,18.165,4.22m-24.39-4.8c.984.039,1.962.109,2.935.2,1.805,1.735,3.592,3.492,5.266,5.355q1.382,1.54,2.682,3.152c.421.526.83,1.125,1.267,1.695a85.922,85.922,0,0,1-12.383,2.636,40.017,40.017,0,0,1-5-.424c-.363-.055-.723-.125-1.083-.19-.02-.065-.038-.13-.061-.194-.219-.622-.464-1.228-.731-1.831-.533-1.206-1.11-2.391-1.711-3.566-.586-1.146-1.218-2.257-1.908-3.345-.5-.781-1-1.618-1.561-2.384a48.269,48.269,0,0,1,12.289-1.1M142.673,51.2a10.909,10.909,0,0,0-1.546.2.708.708,0,0,0-.159.081,44.038,44.038,0,0,1-15.681-11.359,46.41,46.41,0,0,1,11.509-4.81c.622.993,1.4,1.919,2.048,2.9q1.095,1.647,2.11,3.349c.654,1.1,1.251,2.237,1.812,3.387.065.132.186.436.34.781a38.451,38.451,0,0,1-4.091-1.174c-1.1-.389-2.193-.806-3.257-1.291a8.49,8.49,0,0,0-3.235-1.177.45.45,0,0,0-.362.677c.553,1.021,1.9,1.633,2.885,2.144a34.563,34.563,0,0,0,3.549,1.615,39.95,39.95,0,0,0,7.225,2.023,37.93,37.93,0,0,0,3.961.486c-.162.08-.324.162-.488.239a24.856,24.856,0,0,1-5.284,1.719q-.664.134-1.336.22m22.96-.483c-.318.421-.77.838-1.1,1.3a29.612,29.612,0,0,1-8.975,2.039A31.6,31.6,0,0,1,144.079,52.6c.067-.014.135-.02.2-.034a22.649,22.649,0,0,0,2.889-.75,23.225,23.225,0,0,0,2.82-1.166,12.574,12.574,0,0,0,1.252-.676,3.494,3.494,0,0,0,1.019-.866c.356,0,.712.008,1.069,0,.843-.024,1.709-.072,2.566-.161a42.144,42.144,0,0,0,11.922-2.9c-.03.15-.059.3-.1.43a12.91,12.91,0,0,1-.872,2.248,12.175,12.175,0,0,1-1.214,2m10.691-7.351a27.182,27.182,0,0,1-5.62,5.317,28.428,28.428,0,0,1-3.065,1.892c.25-.376.484-.764.7-1.162a13.758,13.758,0,0,0,.98-2.412,5.467,5.467,0,0,0,.333-1.715c.3-.128.6-.252.895-.386a51.767,51.767,0,0,0,7.567-4.233,23.809,23.809,0,0,1-1.785,2.7m18.154,3.845c-.29.314-.549.653-.811.989a28.777,28.777,0,0,1-.414-4.189,30.058,30.058,0,0,1,.658-6.738l.051-.045c.146-.121.193-.159.379-.3q.245-.19.494-.372c.332-.246.676-.471,1.016-.7l.221-.152c.113,1.263.263,2.524.426,3.783.157,1.221.32,2.441.455,3.662.067.615.154,1.228.237,1.842a3.121,3.121,0,0,0-1.379.895c-.466.424-.908.872-1.334,1.336m5.131,14.616a31.281,31.281,0,0,1-5.517-11.568c.147-.242.285-.487.432-.7.321-.459.661-.909,1.012-1.347.368-.456.761-.893,1.17-1.313.19-.194.449-.414.669-.657.119.752.244,1.5.4,2.247a26.564,26.564,0,0,0,1.487,5.421c.283.633,1.475.619,1.341-.227-.188-1.177-.474-2.338-.742-3.5.241.139.487.277.72.417.6.358,1.185.722,1.777,1.083l1.777,1.086c.193.119.422.266.663.4a28.287,28.287,0,0,1-5.187,8.662m6.965-18.554a27.051,27.051,0,0,1-1.3,8.518c-.112-.072-.224-.142-.328-.209l-1.753-1.132c-.584-.376-1.17-.752-1.751-1.132a14.326,14.326,0,0,0-1.757-1.121.736.736,0,0,0-.24-.058,47.9,47.9,0,0,1-.6-5.076c-.09-1.576-.187-3.172-.262-4.775a12.841,12.841,0,0,1,4.137,1.741,12.072,12.072,0,0,1,1.925,1.571,6.493,6.493,0,0,0,1.892,1.669c.012,0,.022,0,.032.005M201.15,27.059a27.512,27.512,0,0,1,2.709,4.567,28.594,28.594,0,0,1,2.635,9.746,9.544,9.544,0,0,0-.645-.78,13.871,13.871,0,0,0-7.326-4.063,46.082,46.082,0,0,1,.861-11.666c.513.766,1.209,1.437,1.766,2.2m-5.2,6.9a2.484,2.484,0,0,0-1.012.417c-.121.074-.233.163-.352.243.111-.366.2-.737.325-1.1.3-.859.626-1.708.994-2.539-.038,1-.008,1.987.045,2.976m68-12.756c-1.117-.907-2.2-2.705-1.182-4.068.932-1.249,2.781-.82,3.9-.088,2.036,1.338,1.994,3.231,1.056,4.937a3.964,3.964,0,0,1-3.772-.781m-31.44-4.355a11.595,11.595,0,0,1-9.955,13.278c-4.177.3-8.522-2.6-7.959-7.133a9.187,9.187,0,0,1,6.95-7.53,16.426,16.426,0,0,1,10.964,1.386m-65.68,7.119c-.517,0-1.034-.011-1.548-.038a38.522,38.522,0,0,1-13.166-3.21l.507-.147a33.037,33.037,0,0,0,3.358-1.166,30.3,30.3,0,0,0,3.155-1.49,12.559,12.559,0,0,0,2.349-1.477,47.617,47.617,0,0,0,4.949.845,63.81,63.81,0,0,0,11.121.368c-.954.8-1.907,1.588-2.935,2.3a33.044,33.044,0,0,1-6.692,3.607c-.225.089-.669.223-1.1.41m17.875-5.771a25.058,25.058,0,0,1-5.871,3.426,29.991,29.991,0,0,1-6.873,1.946A29.191,29.191,0,0,0,175,21.707a33.837,33.837,0,0,0,3.268-2.616,10.229,10.229,0,0,0,1.554-1.606,65.558,65.558,0,0,0,6.624-.893c-.571.542-1.128,1.116-1.739,1.6m-6.283-11.62a22.423,22.423,0,0,1,5.336,4.341,22.869,22.869,0,0,1,2.229,3.273,65.21,65.21,0,0,1-7.27.931c-1.534.105-3.075.14-4.614.127a17.219,17.219,0,0,0-1.3-3.3,30.2,30.2,0,0,0-2.349-4.157A27.8,27.8,0,0,0,166.3,2.91a27.283,27.283,0,0,1,12.127,3.663M162.583,2.9a1.2,1.2,0,0,0,.509.17,29.093,29.093,0,0,1,5.9,5.775,26.632,26.632,0,0,1,2.327,3.705c.439.835.761,1.769,1.147,2.654-1.364-.046-2.728-.123-4.087-.25a5.662,5.662,0,0,0-1.039-.215c-.962-.1-1.927-.183-2.887-.3-.382-.046-.76-.111-1.14-.162-1.32-.223-2.635-.449-3.959-.633-.318-.058-.637-.108-.954-.169q-1.249-.235-2.493-.487a5.79,5.79,0,0,0-.706-1.747,15.654,15.654,0,0,0-4.917-5.408,38.946,38.946,0,0,1,12.3-2.936M148.7,6.524a1.064,1.064,0,0,0,.406.521,15.623,15.623,0,0,1,3.391,3.029,14.291,14.291,0,0,1,1.274,1.881c.115.2.223.424.333.648-.514-.113-1.028-.219-1.54-.344s-4.191-1.471-4.33-.455c-.082.6.664.926,1.117,1.1.932.364,1.9.667,2.851.966a59.2,59.2,0,0,0,6.084,1.611l.053.009c.433.169.877.3,1.318.44-.382.223-.76.451-1.133.642-1,.51-2.017.985-3.057,1.4q-1.53.611-3.115,1.071c-.557.161-1.121.286-1.68.437a1.543,1.543,0,0,0-.576.3,67.6,67.6,0,0,1-11.844-7.476A72.51,72.51,0,0,1,148.7,6.524" transform="translate(42.613 0)" fill="#13164b"/><path d="M219.973,15.154a1.872,1.872,0,0,0-.084.955c.046.154.093.306.14.459a1.876,1.876,0,0,0,.626.757,1.934,1.934,0,0,0,2.618-.449c.077-.148.155-.3.233-.447a1.887,1.887,0,0,0,.084-.955l-.142-.459a1.873,1.873,0,0,0-.625-.757,1.932,1.932,0,0,0-2.618.449c-.078.148-.155.3-.233.447" transform="translate(76.787 4.857)" fill="#13164b"/><path d="M215.219,12.6a2.186,2.186,0,0,0-.1,1.113c.055.178.111.356.165.534a2.179,2.179,0,0,0,.73.882,2.251,2.251,0,0,0,3.049-.524l.271-.521a2.186,2.186,0,0,0,.1-1.113c-.055-.178-.109-.356-.165-.534a2.187,2.187,0,0,0-.729-.882,1.667,1.667,0,0,0-.8-.332,1.962,1.962,0,0,0-1.612.277,1.654,1.654,0,0,0-.641.58l-.271.519" transform="translate(75.12 3.892)" fill="#13164b"/><path d="M211.469,10.337a.822.822,0,0,0-.036.42.819.819,0,0,0,.07.413,1.249,1.249,0,0,0,.287.565l.325.3.391.205a1.259,1.259,0,0,0,.629.084,1.635,1.635,0,0,0,.8-.247,1.223,1.223,0,0,0,.483-.437c.069-.131.138-.26.205-.391.031-.14.062-.279.092-.418-.005-.14-.011-.281-.018-.422a1.24,1.24,0,0,0-.236-.584,1.244,1.244,0,0,0-.437-.483l-.008-.005-.39-.2A1.243,1.243,0,0,0,213,9.05a.839.839,0,0,0-.41.07,1.245,1.245,0,0,0-.561.286l-.005.005c-.1.108-.2.216-.3.325a1.234,1.234,0,0,0-.251.6" transform="translate(73.839 3.156)" fill="#13164b"/><path d="M135.683,45.084l-.057.621,0,.038a2.384,2.384,0,0,0,.351,1.15,1.758,1.758,0,0,0,.645.662,1.8,1.8,0,0,0,.854.407,2.385,2.385,0,0,0,1.209-.046l.034-.008a1.6,1.6,0,0,0,.565-.254l.484-.393a3.537,3.537,0,0,0,.416-.576l.093-.138a2.673,2.673,0,0,0,.177-1.824c-.085-.185-.169-.371-.252-.557a1.774,1.774,0,0,0-.652-.669,1.216,1.216,0,0,0-.561-.3,1.773,1.773,0,0,0-.919-.167l-.6.1a2.391,2.391,0,0,0-1.039.642l-.107.128-.02.026a2.391,2.391,0,0,0-.2.275,1.2,1.2,0,0,0-.192.269,2.619,2.619,0,0,0-.228.611" transform="translate(47.368 15.026)" fill="#13164b"/><path d="M136.138,51.607a2.206,2.206,0,0,0,.2.8l.03.065a1.39,1.39,0,0,0,.154.312.27.27,0,0,1,.026.042,2.313,2.313,0,0,0,1.507,1.1,2.354,2.354,0,0,0,1.2-.046,2.629,2.629,0,0,0,1.4-1.148,2.337,2.337,0,0,0,.275-1.2,2.375,2.375,0,0,0-.348-1.146,2.348,2.348,0,0,0-.9-.845,2.641,2.641,0,0,0-1.3-.294,2.02,2.02,0,0,0-.6.1l-.534.242c-.159.119-.314.244-.464.376l-.005.005a2.593,2.593,0,0,0-.371.515,2.2,2.2,0,0,0-.259,1.131" transform="translate(47.546 17.195)" fill="#13164b"/><path d="M134.329,57.141a2.355,2.355,0,0,0,.046,1.2c.084.184.166.367.248.55a2.364,2.364,0,0,0,.9.845,2.622,2.622,0,0,0,1.8.174,2.629,2.629,0,0,0,1.4-1.148l.221-.594a2.355,2.355,0,0,0-.047-1.2c-.082-.184-.165-.367-.248-.55a2.335,2.335,0,0,0-.9-.845,2.424,2.424,0,0,0-3.192.974c-.074.2-.147.4-.221.594" transform="translate(46.895 19.312)" fill="#13164b"/><path d="M42.831,164.052a1.97,1.97,0,0,0,.039,1.009c.069.152.138.306.208.46a1.965,1.965,0,0,0,.753.707,1.487,1.487,0,0,0,.753.208,1.463,1.463,0,0,0,.753-.062,2.193,2.193,0,0,0,1.168-.961c.061-.166.123-.332.184-.5a1.97,1.97,0,0,0-.038-1.009c-.069-.154-.139-.308-.208-.461a1.969,1.969,0,0,0-.754-.707,2.195,2.195,0,0,0-1.506-.146,2.208,2.208,0,0,0-1.167.962c-.062.165-.123.331-.185.5" transform="translate(14.942 56.756)" fill="#13164b"/><path d="M19.647,199.672a1.3,1.3,0,0,0-.154.665,1.975,1.975,0,0,0,.082,1c.005.024.009.047.013.072l.005.032a.723.723,0,0,0,.142.317,1.31,1.31,0,0,0,.358.578c.074.094.151.188.228.281l.579.417.668.248.012,0a.534.534,0,0,0,.054.011l.209.049a1.8,1.8,0,0,0,.92,0,1.8,1.8,0,0,0,.859-.3c.161-.131.321-.26.48-.391a2.388,2.388,0,0,0,.6-1.124c.009-.067.022-.136.032-.205,0-.015,0-.031.005-.046a2.843,2.843,0,0,0,.032-.355,1.311,1.311,0,0,0-.024-.677,1.347,1.347,0,0,0-.2-.645,2.039,2.039,0,0,0-.144-.317,1.964,1.964,0,0,0-.439-.542l-.579-.417-.027-.015-.062-.04-.657-.243-.673-.062-.66.113a1.961,1.961,0,0,0-.87.487,1.294,1.294,0,0,0-.467.5,1.309,1.309,0,0,0-.327.613" transform="translate(6.798 69.138)" fill="#13164b"/><path d="M11.837,153.063a2.925,2.925,0,0,0,.43,1.413l.022.039.009.019.008.013.483.6a2.975,2.975,0,0,0,2.916.684l.038-.011c.046-.015.093-.028.14-.042a2.068,2.068,0,0,0,.924-.518,2.089,2.089,0,0,0,.714-.83l.259-.7a2.782,2.782,0,0,0-.054-1.415l-.045-.139-.011-.034a2.14,2.14,0,0,0-.556-1,1.321,1.321,0,0,0-.248-.3,2.241,2.241,0,0,0-1.017-.6,2.038,2.038,0,0,0-1.15-.206l-.022,0-.047,0a2.913,2.913,0,0,0-2.794,3.025" transform="translate(4.133 52.394)" fill="#13164b"/><path d="M167.172,34.217a1.415,1.415,0,0,0,.108.622,2.437,2.437,0,0,0,3.043,1.62,2.456,2.456,0,0,0,1.059-.654,1.666,1.666,0,0,0,.386-.537,2.437,2.437,0,0,0,.286-1.244l0-.027,0-.026a2.439,2.439,0,0,0-.36-1.185l-.4-.486a1.828,1.828,0,0,0-.828-.49,1.2,1.2,0,0,0-.614-.14,1.8,1.8,0,0,0-.92.076,2.353,2.353,0,0,0-1.077.677,3.562,3.562,0,0,0-.4.549,2.433,2.433,0,0,0-.285,1.244" transform="translate(58.385 11.051)" fill="#13164b"/><path d="M137.931,18.913a1.826,1.826,0,0,0,.036.934l.192.426a1.807,1.807,0,0,0,.7.654,1.382,1.382,0,0,0,.7.193,1.4,1.4,0,0,0,.7-.057,2.049,2.049,0,0,0,1.081-.891c.057-.154.115-.306.171-.46a1.826,1.826,0,0,0-.036-.934l-.192-.426a1.827,1.827,0,0,0-.7-.654,2.023,2.023,0,0,0-1.394-.135,2.025,2.025,0,0,0-1.081.889c-.058.154-.115.308-.171.46" transform="translate(48.157 6.106)" fill="#13164b"/><path d="M177.507,3.557c-.05.136-.1.273-.151.407-.013.14-.026.281-.038.42l.069.409a1.215,1.215,0,0,0,.3.542.808.808,0,0,0,.309.29.816.816,0,0,0,.382.2.812.812,0,0,0,.413.094,1.228,1.228,0,0,0,.619-.051l.158-.034A1.7,1.7,0,0,0,180.7,3.714a1.284,1.284,0,0,0-.318-.568,1.276,1.276,0,0,0-.51-.437,1.7,1.7,0,0,0-.868-.2,1.694,1.694,0,0,0-1.434.9l-.066.146" transform="translate(61.929 0.876)" fill="#13164b"/><path d="M265.912,463.271c-12.815-2.284-25.517-4.56-38.048-8.166a271.083,271.083,0,0,1-36.647-13.484,274.4,274.4,0,0,1-65.763-41.612A265.309,265.309,0,0,1,77.6,346.151,271.691,271.691,0,0,1,47.1,284.976a275.312,275.312,0,0,1-14.321-66.559q-.38-4.254-.622-8.519a1.165,1.165,0,0,0-2.326.093,266.755,266.755,0,0,0,12.224,67.886A279.844,279.844,0,0,0,70.846,340.61a272.612,272.612,0,0,0,45.42,55.4,269.831,269.831,0,0,0,64.421,44.68A274.16,274.16,0,0,0,255.5,465.3c3.213.557,6.413,1.027,9.658,1.336,2.137.2,3-2.964.754-3.365" transform="translate(10.419 72.93)" fill="#13164b"/><path d="M250.111,447.821a265.033,265.033,0,0,1-123.837-60.805A259.2,259.2,0,0,1,83.26,338.779a264.9,264.9,0,0,1-28.541-54.316,269.965,269.965,0,0,1-15.558-59.4q-.524-3.744-.955-7.5c-.144-1.266-2.122-1.21-2,.08a256.04,256.04,0,0,0,13.352,60.511A270.9,270.9,0,0,0,76.786,333.9a262.319,262.319,0,0,0,40.993,49.611A267.617,267.617,0,0,0,174.7,424.5a265.226,265.226,0,0,0,65.953,24.851q4.337.994,8.707,1.839c2.172.422,2.94-2.939.754-3.365" transform="translate(12.644 75.662)" fill="#13164b"/><path d="M241.245,18.464c12.814,2.284,25.517,4.56,38.046,8.166A271.045,271.045,0,0,1,315.94,40.115,274.4,274.4,0,0,1,381.7,81.727a265.308,265.308,0,0,1,47.857,53.858,271.688,271.688,0,0,1,30.495,61.175,275.377,275.377,0,0,1,14.321,66.559q.38,4.254.622,8.519a1.165,1.165,0,0,0,2.326-.093A266.748,266.748,0,0,0,465.1,203.859a279.839,279.839,0,0,0-28.788-62.732,272.613,272.613,0,0,0-45.42-55.4,269.813,269.813,0,0,0-64.423-44.68,274.136,274.136,0,0,0-74.811-24.606c-3.213-.557-6.413-1.027-9.658-1.336-2.137-.2-3,2.964-.754,3.365" transform="translate(83.794 5.27)" fill="#13164b"/><path d="M251.3,27.9A265.034,265.034,0,0,1,375.14,88.7a259.2,259.2,0,0,1,43.014,48.236A264.9,264.9,0,0,1,446.7,191.256a270.047,270.047,0,0,1,15.558,59.4q.524,3.744.955,7.5c.144,1.266,2.122,1.21,2-.08a256.045,256.045,0,0,0-13.352-60.511,270.838,270.838,0,0,0-27.227-55.75,262.261,262.261,0,0,0-40.992-49.611A267.373,267.373,0,0,0,260.764,26.374q-4.339-.994-8.707-1.839c-2.172-.422-2.941,2.939-.754,3.365" transform="translate(87.312 8.555)" fill="#13164b"/></g></svg>