<?xml version="1.0" encoding="utf-8"?>
<!-- Generator: Adobe Illustrator 17.0.0, SVG Export Plug-In . SVG Version: 6.00 Build 0)  -->
<!DOCTYPE svg PUBLIC "-//W3C//DTD SVG 1.1//EN" "http://www.w3.org/Graphics/SVG/1.1/DTD/svg11.dtd">
<svg version="1.1" id="Layer_1" xmlns="http://www.w3.org/2000/svg" xmlns:xlink="http://www.w3.org/1999/xlink" x="0px" y="0px"
	 width="50px" height="50px" viewBox="0 0 50 50" enable-background="new 0 0 50 50" xml:space="preserve">
<rect fill="none" width="50" height="50"/>
<g>
	<path fill="#FFFFFF" d="M25,50C11.215,50,0,38.785,0,25S11.215,0,25,0s25,11.215,25,25S38.785,50,25,50z M25,3.188
		C12.973,3.188,3.187,12.973,3.187,25c0,12.028,9.785,21.813,21.813,21.813c12.028,0,21.812-9.785,21.812-21.813
		C46.812,12.973,37.028,3.188,25,3.188z"/>
</g>
<circle fill="#FFFFFF" cx="25.438" cy="27.969" r="2.438"/>
<g>
	<path fill="#FFFFFF" d="M18.937,35.281c-0.208,0-0.416-0.079-0.574-0.238c-0.317-0.317-0.317-0.832,0-1.149l6.262-6.262V12.531
		c0-0.449,0.58-0.813,1.028-0.813c0.449,0,0.969,0.432,0.969,0.88v15.776l-7.11,6.668C19.353,35.202,19.145,35.281,18.937,35.281z"
		/>
</g>
</svg>
