<?xml version="1.0" encoding="utf-8"?>
<!-- Generator: Adobe Illustrator 17.0.0, SVG Export Plug-In . SVG Version: 6.00 Build 0)  -->
<!DOCTYPE svg PUBLIC "-//W3C//DTD SVG 1.1//EN" "http://www.w3.org/Graphics/SVG/1.1/DTD/svg11.dtd">
<svg version="1.1" id="Layer_1" xmlns="http://www.w3.org/2000/svg" xmlns:xlink="http://www.w3.org/1999/xlink" x="0px" y="0px"
	 width="22.542px" height="28.375px" viewBox="4.667 1.833 22.542 28.375" enable-background="new 4.667 1.833 22.542 28.375"
	 xml:space="preserve">
<g id="_1">
	<path id="login_account_enter_door" fill="#FFFFFF" d="M27,3v26c0,0.552-0.448,1-1,1H6c-0.552,0-1-0.448-1-1v-2h2v1h18V4H7v3H5V3
		c0-0.552,0.448-1,1-1h20C26.552,2,27,2.448,27,3z M12.29,20.29l1.42,1.42l5-5c0.392-0.389,0.395-1.022,0.006-1.414
		c-0.002-0.002-0.004-0.004-0.006-0.006l-5-5l-1.42,1.42l3.3,3.29H5v2h10.59L12.29,20.29z"/>
</g>
</svg>
