<?xml version="1.0" encoding="utf-8"?>
<!-- Generator: Adobe Illustrator 17.0.0, SVG Export Plug-In . SVG Version: 6.00 Build 0)  -->
<!DOCTYPE svg PUBLIC "-//W3C//DTD SVG 1.1//EN" "http://www.w3.org/Graphics/SVG/1.1/DTD/svg11.dtd">
<svg version="1.1" id="Layer_1" xmlns="http://www.w3.org/2000/svg" xmlns:xlink="http://www.w3.org/1999/xlink" x="0px" y="0px"
	 width="800px" height="553px" viewBox="0 122.5 800 553" enable-background="new 0 122.5 800 553" xml:space="preserve">
<g>
	<path fill="#FFFFFF" d="M783.594,669.063H16.406C7.344,669.063,0,661.719,0,652.656V147.344c0-9.063,7.344-16.406,16.406-16.406
		h767.031c9.063,0,16.406,7.344,16.406,16.406V652.5C800,661.719,792.656,669.063,783.594,669.063z M32.969,636.094h734.063V163.906
		H32.969V636.094z"/>
	<path fill="#FFFFFF" d="M400,416.406c-3.125,0-6.25-0.938-9.063-2.656L7.344,161.094c-7.656-5-9.688-15.156-4.688-22.813
		s15.156-9.688,22.813-4.688L400,380.313l374.531-246.719c7.656-5,17.813-2.969,22.813,4.688s2.969,17.813-4.688,22.813
		L409.062,413.75C406.25,415.625,403.125,416.406,400,416.406z"/>
	<path fill="#FFFFFF" d="M16.563,669.063c-4.531,0-9.219-1.875-12.5-5.625c-5.938-6.875-5.313-17.344,1.563-23.281L336.094,352.5
		c6.875-5.938,17.344-5.312,23.281,1.563c5.938,6.875,5.313,17.344-1.563,23.281L27.344,665
		C24.219,667.813,20.313,669.063,16.563,669.063z"/>
	<path fill="#FFFFFF" d="M783.438,669.063c-3.906,0-7.656-1.406-10.781-4.063L442.344,377.5c-6.875-5.938-7.656-16.406-1.563-23.281
		c5.938-6.875,16.406-7.656,23.281-1.563l330.469,287.656c6.875,5.938,7.656,16.406,1.563,23.281
		C792.656,667.188,788.125,669.063,783.438,669.063z"/>
</g>
</svg>
