<svg xmlns="http://www.w3.org/2000/svg" width="83.592" height="84" viewBox="0 0 83.592 84"><g transform="translate(0 0)"><path d="M51.056,4.064a1.2,1.2,0,0,0,0-.264V3.332A2.54,2.54,0,0,0,49.024.65,42.813,42.813,0,0,0,41.994,0,42,42,0,1,0,83.567,48.015a2.56,2.56,0,0,0-2.032-2.865L44.7,38.607,50.04,9.428ZM39.332,40.11a2.54,2.54,0,0,0,2.032,2.946L78.081,49.7A36.92,36.92,0,1,1,41.974,5q1.829,0,3.657.183Z" transform="translate(0)" fill="#4ed58c"/><path d="M5.03,31.317A26.781,26.781,0,0,1,26.71,5.044a2.544,2.544,0,0,0-.955-5A31.84,31.84,0,1,0,59.973,46.211a2.541,2.541,0,1,0-4.491-2.377A26.761,26.761,0,0,1,5.03,31.317Z" transform="translate(10.204 10.683)" fill="#4ed58c"/><path d="M6.99,0A6.949,6.949,0,1,0,9.654.531,6.97,6.97,0,0,0,6.99,0Zm0,8.839A1.89,1.89,0,1,1,8.859,6.97,1.869,1.869,0,0,1,6.99,8.839Z" transform="translate(23.991 23.083)" fill="#4ed58c"/><path d="M7.051,0a6.97,6.97,0,1,0,4.876,2.07A6.97,6.97,0,0,0,7.051,0Zm0,8.859a1.89,1.89,0,1,1,1.336-.553,1.89,1.89,0,0,1-1.336.553Z" transform="translate(22.63 43.117)" fill="#4ed58c"/><path d="M6.97,13.939a6.949,6.949,0,1,0-2.661-.521,6.97,6.97,0,0,0,2.661.521Zm0-8.859a1.89,1.89,0,1,1-1.336.553A1.89,1.89,0,0,1,6.97,5.08Z" transform="translate(42.786 47.852)" fill="#4ed58c"/></g></svg>