<svg xmlns="http://www.w3.org/2000/svg" width="107.915" height="84" viewBox="0 0 107.915 84"><g transform="translate(0)"><path d="M0,69.622v7.868A6.509,6.509,0,0,0,6.509,84h94.825a6.509,6.509,0,0,0,6.485-6.509V69.622a4.363,4.363,0,0,0-4.363-4.387h-.787a7.582,7.582,0,0,0,.167-1.478v-7.7a6.891,6.891,0,0,0-1.216-3.886,6.748,6.748,0,0,0,1.216-3.863V40.534a6.461,6.461,0,0,0,0-.978h1.049a4.053,4.053,0,0,0,4.03-4.053V25.489C107.819,9.776,98.807,0,53.91,0S0,9.37,0,25.56V35.574a4.053,4.053,0,0,0,4.053,4.053h.715a6.462,6.462,0,0,0,0,.978v7.7a6.748,6.748,0,0,0,1.216,3.863,6.891,6.891,0,0,0-1.216,3.886v7.7a7.582,7.582,0,0,0,.167,1.478H4.387A4.411,4.411,0,0,0,0,69.622ZM5.961,25.56c0-8.727,0-19.6,47.949-19.6s47.949,11.326,47.949,19.6v8.107H5.961Zm95.9,51.931a.548.548,0,0,1-.525.548H6.509a.548.548,0,0,1-.548-.548V71.2h95.9ZM10.515,56.032a.906.906,0,0,1,.906-.906H22.055a102.527,102.527,0,0,1,12.589,9.537H11.421a.906.906,0,0,1-.906-.882Zm0-7.749V40.534a.906.906,0,0,1,.906-.882H95.993a.906.906,0,0,1,.882.882v7.7a.882.882,0,0,1-.882.882H11.421a.882.882,0,0,1-.906-.811Zm86.36,7.749v7.7a.906.906,0,0,1-.882.882H53.075c5.555-4.506,13.281-9.323,21.054-9.537H95.946a.906.906,0,0,1,.93.978ZM43.109,64.377c-1.049-1.025-2.074-2.027-3.123-2.957-2.67-2.384-5.246-4.53-7.511-6.271h23.7a70.481,70.481,0,0,0-8.488,6.2C46.4,62.469,45.3,63.519,44.349,64.4a.906.906,0,0,1-.644.238h0a.93.93,0,0,1-.6-.262Z" fill="#f54748"/><path d="M10.258.8.864,10.336a2.98,2.98,0,0,0,2.1,5.079,3.052,3.052,0,0,0,2.122-.858l9.394-9.418a2.98,2.98,0,0,0,0-4.22A3.028,3.028,0,0,0,10.258.8Z" transform="translate(19.784 10.456)" fill="#f54748"/><path d="M5.816,1,.856,5.936a3.028,3.028,0,0,0,0,4.22,2.98,2.98,0,0,0,2.122.882,2.885,2.885,0,0,0,2.1-.882L10.036,5.2A2.98,2.98,0,1,0,5.816,1Z" transform="translate(47.951 18.766)" fill="#f54748"/><path d="M7.48,1,.876,7.581a2.98,2.98,0,0,0,0,4.22A3.076,3.076,0,0,0,3,12.683,2.98,2.98,0,0,0,5.1,11.8l6.628-6.6A2.98,2.98,0,1,0,7.5,1Z" transform="translate(71.727 10.707)" fill="#f54748"/></g></svg>