<svg xmlns="http://www.w3.org/2000/svg" width="260" height="96.101" viewBox="0 0 260 96.101"><g transform="translate(-388.984 116.845)"><text transform="translate(518.984 -61.268)" font-size="24" font-family="Raleway-Black, Raleway" font-weight="800" letter-spacing="0.038em"><tspan x="-129.072" y="0">STAR KEBAB &amp; PIZZA</tspan></text><path d="M818.808,71.123a26.952,26.952,0,0,1-19.356-8.2h-2.571a28.848,28.848,0,0,0,43.854,0h-2.57A26.953,26.953,0,0,1,818.808,71.123Zm0,9.972a37,37,0,0,0,31.8-18.167h-2.227a35.025,35.025,0,0,1-59.153,0H787A37,37,0,0,0,818.808,81.095Zm38.84-18.167a43.17,43.17,0,0,1-77.682,0h-2.1a45.063,45.063,0,0,0,81.881,0Z" transform="translate(-285.905 -109.904)"/><path d="M818.808,42.761a26.951,26.951,0,0,0-19.356,8.194h-2.571a28.852,28.852,0,0,1,43.854,0h-2.57A26.952,26.952,0,0,0,818.808,42.761Zm0-9.973a37,37,0,0,1,31.8,18.167h-2.227a35.025,35.025,0,0,0-59.153,0H787A37,37,0,0,1,818.808,32.788Zm38.84,18.167a43.169,43.169,0,0,0-77.682,0h-2.1a45.063,45.063,0,0,1,81.881,0Z" transform="translate(-285.905 -141.567)"/></g></svg>