<svg xmlns="http://www.w3.org/2000/svg" width="330" height="118.635" viewBox="0 0 330 118.635"><g transform="translate(-366.984 -86.155)"><text transform="translate(531.984 156.007)" fill="#d91d1d" font-size="31" font-family="OpenSans-Bold, Open Sans" font-weight="700" letter-spacing="0.038em"><tspan x="-164.771" y="0">STAR KEBAB &amp; PIZZA</tspan></text><path d="M828.407,73.045a33.272,33.272,0,0,1-23.895-10.117h-3.173a35.612,35.612,0,0,0,54.137,0H852.3A33.272,33.272,0,0,1,828.407,73.045Zm0,12.31a45.675,45.675,0,0,0,39.259-22.427h-2.749a43.238,43.238,0,0,1-73.023,0h-2.748A45.678,45.678,0,0,0,828.407,85.355Zm47.948-22.427a53.293,53.293,0,0,1-95.9,0h-2.592a55.63,55.63,0,0,0,101.08,0Z" transform="translate(-283.311 109.478)" fill="#1c1b1b"/><path d="M828.407,46.991a33.27,33.27,0,0,0-23.895,10.115h-3.173a35.617,35.617,0,0,1,54.137,0H852.3A33.271,33.271,0,0,0,828.407,46.991Zm0-12.312a45.675,45.675,0,0,1,39.259,22.427h-2.749a43.238,43.238,0,0,0-73.023,0h-2.748A45.677,45.677,0,0,1,828.407,34.679Zm47.948,22.427a53.292,53.292,0,0,0-95.9,0h-2.592a55.629,55.629,0,0,1,101.08,0Z" transform="translate(-283.311 61.433)" fill="#1c1b1b"/></g></svg>