<svg xmlns="http://www.w3.org/2000/svg" width="182" height="64.163" viewBox="0 0 182 64.163"><g transform="translate(-365.984 -86.155)"><text transform="translate(456.984 124.086)" fill="#fff" font-size="17" font-family="OpenSans-Bold, Open Sans" font-weight="700" letter-spacing="0.038em"><tspan x="-90.358" y="0">STAR KEBAB &amp; PIZZA</tspan></text><path d="M805.2,68.4a18,18,0,0,1-12.923-5.472h-1.716a19.26,19.26,0,0,0,29.28,0h-1.716A18,18,0,0,1,805.2,68.4Zm0,6.658a24.7,24.7,0,0,0,21.233-12.13h-1.487a23.385,23.385,0,0,1-39.494,0h-1.486A24.7,24.7,0,0,0,805.2,75.057Zm25.932-12.13a28.823,28.823,0,0,1-51.865,0h-1.4a30.087,30.087,0,0,0,54.668,0Z" transform="translate(-341.886 69.876)" fill="#fff"/><path d="M805.2,36.766a17.994,17.994,0,0,0-12.923,5.471h-1.716a19.263,19.263,0,0,1,29.28,0h-1.716A17.994,17.994,0,0,0,805.2,36.766Zm0-6.659a24.7,24.7,0,0,1,21.233,12.13h-1.487a23.385,23.385,0,0,0-39.494,0h-1.486A24.7,24.7,0,0,1,805.2,30.107Zm25.932,12.13a28.822,28.822,0,0,0-51.865,0h-1.4a30.087,30.087,0,0,1,54.668,0Z" transform="translate(-341.886 61.433)" fill="#fff"/></g></svg>