<svg xmlns="http://www.w3.org/2000/svg" width="202" height="70.53" viewBox="0 0 202 70.53"><g transform="translate(-366.984 -86.155)"><text transform="translate(467.984 128.064)" fill="#fff" font-size="19" font-family="OpenSans-Bold, Open Sans" font-weight="700" letter-spacing="0.038em"><tspan x="-100.989" y="0">STAR KEBAB &amp; PIZZA</tspan></text><path d="M807.914,68.942a19.78,19.78,0,0,1-14.206-6.015h-1.886a21.172,21.172,0,0,0,32.185,0H822.12A19.781,19.781,0,0,1,807.914,68.942Zm0,7.319a27.155,27.155,0,0,0,23.34-13.333H829.62a25.705,25.705,0,0,1-43.413,0h-1.634A27.156,27.156,0,0,0,807.914,76.261Zm28.505-13.333a31.683,31.683,0,0,1-57.011,0h-1.541a33.072,33.072,0,0,0,60.093,0Z" transform="translate(-335.04 74.504)" fill="#767676"/><path d="M807.914,37.961a19.78,19.78,0,0,0-14.206,6.014h-1.886a21.174,21.174,0,0,1,32.185,0H822.12A19.78,19.78,0,0,0,807.914,37.961Zm0-7.319a27.154,27.154,0,0,1,23.34,13.333H829.62a25.705,25.705,0,0,0-43.413,0h-1.634A27.156,27.156,0,0,1,807.914,30.642Zm28.505,13.333a31.682,31.682,0,0,0-57.011,0h-1.541a33.072,33.072,0,0,1,60.093,0Z" transform="translate(-335.04 61.433)" fill="#d91d1d"/></g></svg>