<svg xmlns="http://www.w3.org/2000/svg" width="152" height="56.17" viewBox="0 0 152 56.17"><g transform="translate(-405.984 108.845)"><text transform="translate(481.984 -76.331)" font-size="14" font-family="Raleway-Black, Raleway" font-weight="800" letter-spacing="0.038em"><tspan x="-75.292" y="0">STAR KEBAB &amp; PIZZA</tspan></text><path d="M805.2,68.4a18,18,0,0,1-12.925-5.472h-1.717a19.263,19.263,0,0,0,29.283,0H818.13A18,18,0,0,1,805.2,68.4Zm0,6.659A24.706,24.706,0,0,0,826.44,62.928h-1.487a23.387,23.387,0,0,1-39.5,0h-1.486A24.707,24.707,0,0,0,805.2,75.059Zm25.935-12.131a28.826,28.826,0,0,1-51.87,0h-1.4a30.09,30.09,0,0,0,54.674,0Z" transform="translate(-322.073 -133.119)"/><path d="M805.2,36.767a18,18,0,0,0-12.925,5.471h-1.717a19.265,19.265,0,0,1,29.283,0H818.13A18,18,0,0,0,805.2,36.767Zm0-6.659A24.706,24.706,0,0,1,826.44,42.239h-1.487a23.387,23.387,0,0,0-39.5,0h-1.486A24.707,24.707,0,0,1,805.2,30.108Zm25.935,12.131a28.825,28.825,0,0,0-51.87,0h-1.4a30.09,30.09,0,0,1,54.674,0Z" transform="translate(-322.073 -133.567)"/></g></svg>