<svg xmlns="http://www.w3.org/2000/svg" width="362" height="128.361" viewBox="0 0 362 128.361"><g transform="translate(-366.984 -86.155)"><text transform="translate(547.984 162.028)" fill="#fff" font-size="34" font-family="OpenSans-Bold, Open Sans" font-weight="700" letter-spacing="0.038em"><tspan x="-180.716" y="0">STAR KEBAB &amp; PIZZA</tspan></text><path d="M832.551,73.874A36,36,0,0,1,806.7,62.928h-3.433a38.531,38.531,0,0,0,58.575,0h-3.433A36,36,0,0,1,832.551,73.874Zm0,13.319a49.42,49.42,0,0,0,42.478-24.266h-2.974a46.783,46.783,0,0,1-79.009,0h-2.973A49.423,49.423,0,0,0,832.551,87.193Zm51.878-24.266a57.662,57.662,0,0,1-103.758,0h-2.8a60.19,60.19,0,0,0,109.367,0Z" transform="translate(-272.853 116.549)" fill="#fff"/><path d="M832.551,48.817A36,36,0,0,0,806.7,59.761h-3.433a38.536,38.536,0,0,1,58.575,0h-3.433A36,36,0,0,0,832.551,48.817Zm0-13.321a49.419,49.419,0,0,1,42.478,24.266h-2.974a46.783,46.783,0,0,0-79.009,0h-2.973A49.422,49.422,0,0,1,832.551,35.5Zm51.878,24.266a57.66,57.66,0,0,0-103.758,0h-2.8a60.19,60.19,0,0,1,109.367,0Z" transform="translate(-272.853 61.433)" fill="#fff"/></g></svg>